<svg xmlns="http://www.w3.org/2000/svg" xmlns:xlink="http://www.w3.org/1999/xlink" width="940" zoomAndPan="magnify" viewBox="0 0 705 591.000005" height="788" preserveAspectRatio="xMidYMid meet" version="1.0"><defs><filter x="0%" y="0%" width="100%" height="100%" id="fdd0242045"><feColorMatrix values="0 0 0 0 1 0 0 0 0 1 0 0 0 0 1 0 0 0 1 0" color-interpolation-filters="sRGB"/></filter><clipPath id="5634b84982"><path d="M 55.402344 0 L 645.40625 0 L 645.40625 590 L 55.402344 590 Z M 55.402344 0 " clip-rule="nonzero"/></clipPath><mask id="9ee4e66763"><g filter="url(#fdd0242045)"><rect x="-70.5" width="846" fill="#000000" y="-59.100001" height="709.200006" fill-opacity="0.25"/></g></mask><clipPath id="40d7ba5365"><path d="M 0.402344 271 L 590.40625 271 L 590.40625 531 L 0.402344 531 Z M 0.402344 271 " clip-rule="nonzero"/></clipPath><clipPath id="dc34d06f68"><path d="M 0.402344 114 L 590.40625 114 L 590.40625 297 L 0.402344 297 Z M 0.402344 114 " clip-rule="nonzero"/></clipPath><clipPath id="91f03a6163"><rect x="0" width="591" y="0" height="590"/></clipPath><clipPath id="727f831a42"><path d="M 55.402344 59 L 645 59 L 645 319 L 55.402344 319 Z M 55.402344 59 " clip-rule="nonzero"/></clipPath><clipPath id="60cda1cbe7"><path d="M 55.402344 293 L 645.40625 293 L 645.40625 476 L 55.402344 476 Z M 55.402344 293 " clip-rule="nonzero"/></clipPath></defs><g clip-path="url(#5634b84982)"><g mask="url(#9ee4e66763)"><g transform="matrix(1, 0, 0, 1, 55, -0.000000000000107785)"><g clip-path="url(#91f03a6163)"><path fill="#000000" d="M 304.546875 590 C 298.945312 590 290.683594 458.136719 286.554688 295.296875 C 282.128906 132.457031 283.308594 0.296875 288.914062 0 C 288.027344 0 287.144531 0 286.257812 0 C 280.652344 0.296875 279.472656 132.457031 283.898438 295.296875 C 288.324219 458.136719 296.289062 590 301.894531 590 C 302.777344 590 303.664062 590 304.546875 590 Z M 304.546875 590 " fill-opacity="1" fill-rule="nonzero"/><path fill="#000000" d="M 336.113281 587.050781 C 308.382812 590.886719 268.261719 463.152344 246.433594 301.492188 C 224.601562 140.421875 229.617188 6.195312 257.054688 2.359375 C 256.167969 2.359375 255.285156 2.65625 254.398438 2.65625 C 226.667969 6.488281 221.949219 140.421875 243.777344 301.785156 C 265.609375 463.152344 305.730469 590.886719 333.457031 587.347656 C 334.34375 587.347656 335.230469 587.347656 336.113281 587.050781 Z M 336.113281 587.050781 " fill-opacity="1" fill-rule="nonzero"/><path fill="#000000" d="M 368.859375 580.855469 C 320.773438 592.953125 249.679688 474.953125 209.851562 316.832031 C 170.027344 159.003906 176.519531 20.945312 224.308594 8.554688 C 224.308594 8.554688 224.308594 8.554688 224.601562 8.554688 C 223.71875 8.851562 222.832031 9.144531 221.949219 9.144531 C 174.15625 21.535156 167.375 159.300781 207.492188 317.421875 C 247.320312 475.246094 318.414062 593.246094 366.203125 581.445312 C 367.089844 581.152344 367.972656 580.855469 368.859375 580.855469 Z M 368.859375 580.855469 " fill-opacity="1" fill-rule="nonzero"/><path fill="#000000" d="M 403.375 569.648438 C 338.769531 595.015625 238.46875 492.652344 179.46875 340.726562 C 120.46875 188.800781 124.894531 45.136719 189.5 19.765625 C 189.5 19.765625 189.792969 19.765625 189.792969 19.46875 C 189.203125 19.765625 188.316406 20.058594 187.433594 20.355469 C 122.828125 45.726562 118.109375 189.390625 177.402344 341.316406 C 236.402344 492.652344 336.113281 595.3125 401.015625 570.53125 C 401.605469 570.238281 402.488281 569.941406 403.375 569.648438 Z M 403.375 569.648438 " fill-opacity="1" fill-rule="nonzero"/><path fill="#000000" d="M 440.542969 551.945312 C 364.433594 594.722656 238.46875 514.480469 158.816406 372.292969 C 79.167969 230.101562 76.511719 79.945312 152.328125 37.171875 C 152.625 37.171875 152.917969 36.875 152.917969 36.875 C 152.03125 37.464844 151.148438 37.761719 150.261719 38.351562 C 74.449219 81.125 77.101562 230.984375 156.753906 373.175781 C 236.109375 514.777344 361.484375 595.3125 437.890625 553.421875 C 438.773438 552.832031 439.660156 552.242188 440.542969 551.945312 Z M 440.542969 551.945312 " fill-opacity="1" fill-rule="nonzero"/><path fill="#000000" d="M 480.074219 525.101562 C 400.128906 589.410156 252.921875 538.082031 151.441406 410.640625 C 49.960938 283.199219 32.261719 127.734375 112.503906 63.71875 C 112.796875 63.425781 113.09375 63.128906 113.386719 62.835938 C 112.503906 63.425781 111.617188 64.308594 110.734375 64.898438 C 30.789062 129.210938 48.191406 284.378906 149.671875 411.820312 C 250.859375 538.671875 397.179688 590 477.417969 527.167969 C 478.304688 526.578125 479.1875 525.691406 480.074219 525.101562 Z M 480.074219 525.101562 " fill-opacity="1" fill-rule="nonzero"/><path fill="#000000" d="M 520.785156 485.277344 C 446.738281 572.890625 286.257812 558.4375 162.0625 452.828125 C 37.867188 347.214844 -2.84375 190.867188 71.203125 103.25 C 71.496094 102.660156 72.089844 102.367188 72.382812 101.773438 C 71.496094 102.660156 70.90625 103.546875 70.023438 104.429688 C -4.023438 192.339844 36.6875 348.691406 160.882812 454.300781 C 284.195312 559.320312 443.789062 574.367188 518.425781 488.226562 C 519.308594 487.046875 519.898438 486.160156 520.785156 485.277344 Z M 520.785156 485.277344 " fill-opacity="1" fill-rule="nonzero"/><path fill="#000000" d="M 558.25 428.929688 C 502.199219 538.671875 339.359375 567.582031 194.511719 493.242188 C 49.667969 418.902344 -22.605469 269.628906 33.441406 159.59375 C 33.738281 159.003906 34.03125 158.121094 34.328125 157.53125 C 33.738281 158.710938 33.148438 159.890625 32.558594 161.070312 C -23.492188 270.8125 48.78125 420.375 193.628906 494.714844 C 337.589844 568.464844 499.542969 540.738281 556.480469 432.472656 C 557.070312 431.292969 557.660156 430.109375 558.25 428.929688 Z M 558.25 428.929688 " fill-opacity="1" fill-rule="nonzero"/><path fill="#000000" d="M 584.210938 355.179688 C 557.953125 480.851562 407.503906 555.191406 248.203125 521.265625 C 88.902344 487.636719 -19.066406 358.425781 7.1875 233.050781 C 7.1875 232.164062 7.1875 231.574219 7.484375 230.691406 C 7.1875 232.164062 6.894531 233.34375 6.597656 234.820312 C -19.65625 360.195312 88.3125 489.40625 247.613281 523.035156 C 405.734375 556.667969 555.300781 483.507812 583.03125 359.605469 C 583.621094 358.132812 583.914062 356.65625 584.210938 355.179688 Z M 584.210938 355.179688 " fill-opacity="1" fill-rule="nonzero"/><g clip-path="url(#40d7ba5365)"><path fill="#000000" d="M 589.519531 271.695312 C 599.550781 400.316406 476.238281 514.777344 313.695312 527.167969 C 151.148438 539.554688 11.316406 445.453125 1.289062 316.535156 C 1.289062 315.652344 1.289062 314.765625 0.992188 313.882812 C 0.992188 315.355469 1.289062 316.832031 1.289062 318.011719 C 11.613281 446.925781 151.441406 541.328125 313.988281 528.9375 C 475.058594 516.546875 598.074219 403.855469 589.8125 276.121094 C 589.8125 274.644531 589.519531 273.171875 589.519531 271.695312 Z M 589.519531 271.695312 " fill-opacity="1" fill-rule="nonzero"/></g><path fill="#000000" d="M 571.820312 192.046875 C 615.773438 310.339844 527.570312 451.941406 374.757812 508.285156 C 221.949219 564.632812 62.351562 514.480469 18.398438 396.1875 C 18.101562 395.597656 17.808594 394.710938 17.511719 394.121094 C 18.101562 395.300781 18.398438 396.480469 18.988281 397.957031 C 62.941406 516.25 222.539062 566.402344 375.347656 510.054688 C 526.980469 454.007812 615.480469 314.175781 573.292969 196.175781 C 572.703125 194.699219 572.410156 193.519531 571.820312 192.046875 Z M 571.820312 192.046875 " fill-opacity="1" fill-rule="nonzero"/><path fill="#000000" d="M 538.1875 127.441406 C 606.039062 225.675781 552.054688 380.257812 417.535156 472.296875 C 283.011719 564.335938 119.289062 559.320312 51.4375 461.085938 C 51.144531 460.496094 50.847656 459.90625 50.554688 459.316406 C 51.144531 460.496094 51.734375 461.382812 52.617188 462.5625 C 120.46875 560.796875 284.195312 565.8125 418.714844 473.769531 C 552.054688 382.320312 606.628906 229.214844 540.253906 130.683594 C 539.664062 129.503906 539.074219 128.621094 538.1875 127.441406 Z M 538.1875 127.441406 " fill-opacity="1" fill-rule="nonzero"/><path fill="#000000" d="M 498.070312 80.535156 C 577.425781 155.464844 550.578125 311.816406 438.183594 429.816406 C 325.789062 547.816406 170.617188 582.921875 91.558594 507.992188 C 90.96875 507.695312 90.671875 507.402344 90.378906 507.105469 C 91.261719 507.992188 92.148438 508.582031 92.738281 509.464844 C 172.09375 584.398438 327.261719 549.292969 439.660156 431.292969 C 551.167969 313.882812 578.605469 158.414062 500.429688 82.894531 C 499.542969 82.011719 498.660156 81.421875 498.070312 80.535156 Z M 498.070312 80.535156 " fill-opacity="1" fill-rule="nonzero"/><path fill="#000000" d="M 457.359375 48.378906 C 537.007812 100.59375 528.75 253.40625 438.773438 389.105469 C 348.796875 525.101562 211.328125 592.65625 131.679688 540.441406 C 131.382812 540.148438 131.089844 540.148438 130.792969 539.851562 C 131.679688 540.441406 132.5625 541.03125 133.449219 541.621094 C 213.097656 593.835938 350.570312 526.28125 440.542969 390.285156 C 529.929688 255.175781 538.777344 102.957031 460.015625 50.148438 C 459.128906 49.558594 458.242188 48.96875 457.359375 48.378906 Z M 457.359375 48.378906 " fill-opacity="1" fill-rule="nonzero"/><path fill="#000000" d="M 419.007812 27.140625 C 490.398438 60.179688 492.464844 206.5 423.730469 354.296875 C 354.992188 502.089844 241.125 595.015625 169.734375 561.976562 C 169.4375 561.976562 169.4375 561.679688 169.144531 561.679688 C 170.027344 561.976562 170.914062 562.566406 171.796875 562.863281 C 243.1875 595.902344 357.058594 502.976562 425.792969 355.179688 C 494.527344 207.976562 492.464844 61.949219 421.664062 28.320312 C 420.777344 28.023438 419.894531 27.433594 419.007812 27.140625 Z M 419.007812 27.140625 " fill-opacity="1" fill-rule="nonzero"/><path fill="#000000" d="M 383.3125 13.273438 C 440.25 30.976562 446.738281 171.394531 397.472656 326.859375 C 348.207031 482.328125 262.363281 593.542969 205.429688 575.839844 L 205.132812 575.839844 C 205.722656 576.136719 206.609375 576.433594 207.492188 576.726562 C 264.429688 594.425781 350.570312 483.210938 399.539062 327.746094 C 448.804688 172.574219 442.609375 32.449219 385.96875 14.160156 C 385.082031 13.863281 384.199219 13.570312 383.3125 13.273438 Z M 383.3125 13.273438 " fill-opacity="1" fill-rule="nonzero"/><path fill="#000000" d="M 349.683594 5.015625 C 387.738281 12.09375 393.933594 147.796875 363.253906 307.6875 C 332.574219 467.578125 276.820312 591.476562 238.46875 584.398438 C 239.351562 584.691406 240.238281 584.691406 241.125 584.988281 C 279.179688 592.066406 335.230469 468.167969 365.910156 308.277344 C 396.589844 148.386719 390.394531 12.980469 352.339844 5.605469 C 351.453125 5.308594 350.570312 5.308594 349.683594 5.015625 Z M 349.683594 5.015625 " fill-opacity="1" fill-rule="nonzero"/><path fill="#000000" d="M 317.824219 0.886719 C 334.636719 2.359375 337.589844 135.109375 324.609375 297.359375 C 311.628906 459.90625 287.4375 590.296875 270.625 589.117188 C 271.507812 589.117188 272.394531 589.117188 273.277344 589.410156 C 289.796875 590.589844 313.988281 459.90625 327.261719 297.65625 C 340.242188 135.109375 337.292969 2.65625 320.480469 1.179688 C 319.296875 0.886719 318.414062 0.886719 317.824219 0.886719 Z M 317.824219 0.886719 " fill-opacity="1" fill-rule="nonzero"/><path fill="#000000" d="M 375.9375 11.210938 C 324.902344 -3.246094 265.902344 -3.246094 214.867188 11.210938 C 217.523438 10.324219 220.179688 9.734375 222.539062 9.144531 C 269.148438 -2.65625 321.363281 -2.65625 367.972656 9.144531 C 370.628906 9.734375 373.285156 10.324219 375.9375 11.210938 Z M 375.9375 11.210938 " fill-opacity="1" fill-rule="nonzero"/><path fill="#000000" d="M 470.042969 57.230469 C 390.097656 -1.476562 247.023438 -9.734375 150.558594 38.941406 C 139.644531 44.546875 129.613281 50.445312 120.761719 57.230469 C 121.941406 56.34375 123.125 55.460938 124.304688 54.871094 C 205.132812 -2.949219 347.027344 -9.734375 441.722656 39.53125 C 450.574219 44.25 458.835938 49.265625 466.503906 54.871094 C 467.683594 55.460938 468.863281 56.34375 470.042969 57.230469 Z M 470.042969 57.230469 " fill-opacity="1" fill-rule="nonzero"/><path fill="#000000" d="M 525.503906 110.625 C 463.554688 33.335938 310.152344 1.179688 183.007812 38.941406 C 131.679688 53.984375 90.378906 79.355469 65.304688 110.625 C 66.1875 109.742188 66.777344 108.855469 67.664062 107.675781 C 130.5 30.976562 283.601562 0 409.570312 38.351562 C 458.835938 53.394531 498.660156 77.585938 523.4375 107.675781 C 524.027344 108.558594 524.914062 109.445312 525.503906 110.625 Z M 525.503906 110.625 " fill-opacity="1" fill-rule="nonzero"/><path fill="#000000" d="M 562.378906 169.332031 C 520.195312 79.648438 366.5 27.730469 219 53.394531 C 126.957031 69.324219 54.976562 113.28125 28.722656 169.332031 C 29.019531 168.445312 29.609375 167.265625 29.902344 166.378906 C 73.269531 76.996094 227.257812 25.960938 373.875 52.511719 C 463.847656 68.441406 534.355469 111.511719 560.902344 166.378906 C 561.199219 167.265625 561.789062 168.445312 562.378906 169.332031 Z M 562.378906 169.332031 " fill-opacity="1" fill-rule="nonzero"/><path fill="#000000" d="M 583.621094 232.164062 C 562.378906 135.109375 416.355469 66.964844 257.054688 79.945312 C 126.957031 90.566406 24.59375 152.808594 7.1875 232.164062 C 7.484375 230.984375 7.777344 229.804688 7.777344 228.921875 C 30.199219 132.160156 176.8125 64.898438 335.820312 78.46875 C 464.144531 89.386719 565.035156 150.746094 583.03125 228.921875 C 583.03125 229.804688 583.324219 230.984375 583.621094 232.164062 Z M 583.621094 232.164062 " fill-opacity="1" fill-rule="nonzero"/><g clip-path="url(#dc34d06f68)"><path fill="#000000" d="M 590.40625 296.476562 C 590.996094 197.355469 459.128906 116.523438 296.289062 116.230469 C 133.449219 116.230469 0.992188 196.175781 0.402344 295.589844 C 0.402344 295.886719 0.402344 296.476562 0.402344 296.769531 C 0.402344 295.589844 0.402344 294.707031 0.402344 293.527344 C 0.992188 194.109375 133.449219 114.164062 296.289062 114.460938 C 458.539062 114.753906 589.8125 194.699219 590.40625 293.230469 C 590.40625 294.410156 590.40625 295.589844 590.40625 296.476562 Z M 590.40625 296.476562 " fill-opacity="1" fill-rule="nonzero"/></g><path fill="#000000" d="M 583.03125 361.082031 C 605.15625 264.320312 494.527344 175.230469 335.820312 161.660156 C 177.109375 148.089844 30.199219 215.351562 8.074219 312.109375 C 4.238281 328.335938 4.238281 344.855469 8.074219 361.082031 C 7.777344 359.902344 7.484375 359.015625 7.484375 357.835938 C -14.050781 261.074219 98.046875 171.984375 257.054688 159.300781 C 416.355469 146.320312 562.378906 214.464844 583.621094 311.519531 C 586.863281 327.15625 586.863281 342.789062 583.621094 358.132812 C 583.324219 359.015625 583.03125 360.195312 583.03125 361.082031 Z M 583.03125 361.082031 " fill-opacity="1" fill-rule="nonzero"/><path fill="#000000" d="M 560.902344 423.621094 C 604.269531 334.234375 520.488281 240.722656 373.875 214.464844 C 227.257812 188.210938 73.269531 238.949219 29.902344 328.335938 C 14.859375 359.605469 14.859375 392.644531 29.902344 423.621094 C 29.3125 422.734375 29.019531 421.554688 28.429688 420.671875 C -13.757812 330.992188 71.496094 237.476562 218.703125 211.515625 C 366.203125 185.851562 520.195312 237.769531 562.378906 327.449219 C 576.835938 357.835938 576.835938 390.285156 562.378906 420.671875 C 561.789062 421.554688 561.199219 422.734375 560.902344 423.621094 Z M 560.902344 423.621094 " fill-opacity="1" fill-rule="nonzero"/><path fill="#000000" d="M 523.4375 482.328125 C 586.273438 405.625 535.535156 312.40625 409.570312 274.054688 C 283.601562 235.707031 130.496094 266.679688 67.664062 343.382812 C 31.671875 387.042969 31.671875 438.667969 67.664062 482.328125 C 66.777344 481.441406 66.1875 480.554688 65.304688 479.375 C 3.351562 402.085938 56.15625 308.570312 183.007812 270.8125 C 310.152344 233.34375 463.554688 265.5 525.503906 342.789062 C 560.019531 385.859375 560.019531 436.304688 525.503906 479.671875 C 524.914062 480.554688 524.027344 481.441406 523.4375 482.328125 Z M 523.4375 482.328125 " fill-opacity="1" fill-rule="nonzero"/><path fill="#000000" d="M 466.503906 535.132812 C 547.335938 477.605469 536.125 391.171875 441.722656 341.90625 C 347.324219 292.640625 205.132812 299.425781 124.304688 356.949219 C 52.324219 408.28125 52.324219 483.800781 124.304688 535.132812 C 123.125 534.246094 121.941406 533.363281 120.761719 532.773438 C 40.816406 474.066406 54.09375 387.042969 150.558594 338.367188 C 247.023438 289.691406 390.097656 297.949219 470.042969 356.65625 C 539.664062 407.691406 539.664062 481.738281 470.042969 532.773438 C 468.863281 533.65625 467.683594 534.542969 466.503906 535.132812 Z M 466.503906 535.132812 " fill-opacity="1" fill-rule="nonzero"/><path fill="#000000" d="M 368.269531 580.855469 C 464.144531 556.371094 509.574219 489.113281 469.453125 430.703125 C 429.332031 372.292969 318.707031 344.5625 222.539062 369.046875 C 126.664062 393.53125 81.234375 460.792969 121.351562 519.203125 C 140.527344 547.226562 176.8125 569.351562 222.539062 580.855469 C 219.882812 580.265625 217.226562 579.382812 214.867188 578.792969 C 119.582031 551.652344 78.28125 482.621094 122.53125 424.507812 C 167.078125 366.390625 280.359375 341.316406 375.9375 368.457031 C 471.222656 395.597656 512.523438 464.625 468.273438 522.742188 C 449.394531 547.523438 416.648438 567.285156 375.9375 578.792969 C 373.285156 579.675781 370.628906 580.265625 368.269531 580.855469 Z M 368.269531 580.855469 " fill-opacity="1" fill-rule="nonzero"/><path fill="#000000" d="M 441.722656 498.257812 C 441.722656 547.523438 376.234375 587.347656 295.402344 587.347656 C 214.574219 587.347656 149.082031 547.523438 149.082031 498.257812 C 149.082031 448.992188 214.574219 409.167969 295.402344 409.167969 C 376.234375 409.167969 441.722656 448.992188 441.722656 498.257812 Z M 444.082031 497.078125 C 444.082031 447.222656 377.707031 406.511719 295.402344 406.511719 C 213.394531 406.511719 146.722656 446.925781 146.722656 497.078125 C 146.722656 546.929688 213.097656 587.640625 295.402344 587.640625 C 377.414062 587.640625 444.082031 547.226562 444.082031 497.078125 Z M 444.082031 497.078125 " fill-opacity="1" fill-rule="nonzero"/><path fill="#000000" d="M 395.113281 515.367188 C 395.113281 548.996094 350.570312 576.136719 295.402344 576.136719 C 240.238281 576.136719 195.691406 548.703125 195.691406 515.367188 C 195.691406 481.738281 240.238281 454.597656 295.402344 454.597656 C 350.570312 454.597656 395.113281 481.738281 395.113281 515.367188 Z M 397.472656 514.480469 C 397.472656 480.261719 351.75 452.234375 295.402344 452.234375 C 239.058594 452.234375 193.332031 479.964844 193.332031 514.480469 C 193.332031 548.996094 239.058594 576.726562 295.402344 576.726562 C 351.75 576.726562 397.472656 548.996094 397.472656 514.480469 Z M 397.472656 514.480469 " fill-opacity="1" fill-rule="nonzero"/><path fill="#000000" d="M 345.257812 525.691406 C 345.257812 542.507812 322.839844 556.078125 295.402344 556.078125 C 267.671875 556.078125 245.546875 542.507812 245.546875 525.691406 C 245.546875 508.875 267.671875 495.304688 295.402344 495.304688 C 323.132812 495.304688 345.257812 508.875 345.257812 525.691406 Z M 347.914062 525.398438 C 347.914062 507.695312 324.3125 493.535156 295.402344 493.535156 C 266.492188 493.535156 242.894531 507.695312 242.894531 525.398438 C 242.894531 543.097656 266.492188 557.257812 295.402344 557.257812 C 324.3125 557.257812 347.914062 543.097656 347.914062 525.398438 Z M 347.914062 525.398438 " fill-opacity="1" fill-rule="nonzero"/></g></g></g></g><path fill="#000000" d="M 341.257812 0 C 346.863281 0 355.125 131.867188 359.253906 294.707031 C 363.679688 457.546875 362.5 589.707031 356.894531 590 C 357.777344 590 358.664062 590 359.546875 590 C 365.152344 589.707031 366.332031 457.546875 361.910156 294.707031 C 357.484375 131.867188 349.519531 0 343.914062 0 C 343.027344 0 342.144531 0 341.257812 0 Z M 341.257812 0 " fill-opacity="1" fill-rule="nonzero"/><path fill="#000000" d="M 309.695312 2.949219 C 337.421875 -0.886719 377.542969 126.851562 399.375 288.511719 C 421.203125 450.171875 416.1875 583.808594 388.753906 587.640625 C 389.636719 587.640625 390.523438 587.347656 391.410156 587.347656 C 419.140625 583.511719 423.859375 449.582031 402.027344 288.214844 C 380.199219 126.851562 340.078125 -0.886719 312.347656 2.65625 C 311.464844 2.65625 310.578125 2.65625 309.695312 2.949219 Z M 309.695312 2.949219 " fill-opacity="1" fill-rule="nonzero"/><path fill="#000000" d="M 276.949219 9.144531 C 325.035156 -2.949219 396.128906 115.050781 435.953125 273.171875 C 475.777344 430.996094 469.289062 569.054688 421.5 581.445312 C 421.5 581.445312 421.5 581.445312 421.203125 581.445312 C 422.089844 581.152344 422.972656 580.855469 423.859375 580.855469 C 471.648438 568.464844 478.433594 430.703125 438.3125 272.582031 C 398.488281 114.753906 327.394531 -3.246094 279.601562 8.554688 C 278.71875 8.851562 277.832031 9.144531 276.949219 9.144531 Z M 276.949219 9.144531 " fill-opacity="1" fill-rule="nonzero"/><path fill="#000000" d="M 242.433594 20.355469 C 307.039062 -5.015625 407.339844 97.351562 466.339844 249.277344 C 525.339844 401.199219 520.914062 544.867188 456.308594 570.238281 C 456.308594 570.238281 456.015625 570.238281 456.015625 570.53125 C 456.605469 570.238281 457.488281 569.941406 458.375 569.648438 C 522.980469 544.277344 527.699219 400.609375 468.402344 248.6875 C 409.402344 97.351562 309.695312 -5.308594 244.792969 19.46875 C 244.203125 19.765625 243.316406 20.058594 242.433594 20.355469 Z M 242.433594 20.355469 " fill-opacity="1" fill-rule="nonzero"/><path fill="#000000" d="M 205.261719 38.054688 C 281.375 -4.71875 407.339844 75.519531 486.988281 217.710938 C 566.640625 359.902344 569.292969 510.054688 493.480469 552.832031 C 493.183594 552.832031 492.890625 553.125 492.890625 553.125 C 493.773438 552.535156 494.660156 552.242188 495.542969 551.652344 C 571.359375 508.875 568.703125 359.015625 489.054688 216.824219 C 409.699219 75.226562 284.324219 -5.308594 207.917969 36.582031 C 207.03125 37.171875 206.148438 37.761719 205.261719 38.054688 Z M 205.261719 38.054688 " fill-opacity="1" fill-rule="nonzero"/><path fill="#000000" d="M 165.734375 64.898438 C 245.679688 0.589844 392.882812 51.921875 494.363281 179.359375 C 595.84375 306.800781 613.542969 462.265625 533.304688 526.28125 C 533.007812 526.578125 532.714844 526.871094 532.417969 527.167969 C 533.304688 526.578125 534.1875 525.691406 535.074219 525.101562 C 615.019531 460.792969 597.613281 305.621094 496.132812 178.179688 C 394.949219 51.332031 248.628906 0 168.386719 62.835938 C 167.503906 63.425781 166.617188 64.308594 165.734375 64.898438 Z M 165.734375 64.898438 " fill-opacity="1" fill-rule="nonzero"/><path fill="#000000" d="M 125.023438 104.726562 C 199.066406 17.109375 359.546875 31.566406 483.742188 137.175781 C 607.9375 242.785156 648.648438 399.136719 574.605469 486.75 C 574.308594 487.339844 573.71875 487.636719 573.425781 488.226562 C 574.308594 487.339844 574.898438 486.457031 575.785156 485.570312 C 649.828125 397.660156 609.121094 241.3125 484.925781 135.699219 C 361.613281 30.679688 202.019531 15.636719 127.382812 101.773438 C 126.496094 102.957031 125.90625 103.839844 125.023438 104.726562 Z M 125.023438 104.726562 " fill-opacity="1" fill-rule="nonzero"/><path fill="#000000" d="M 87.558594 161.070312 C 143.609375 51.332031 306.449219 22.421875 451.292969 96.761719 C 596.140625 171.101562 668.414062 320.371094 612.363281 430.40625 C 612.070312 430.996094 611.773438 431.882812 611.480469 432.472656 C 612.070312 431.292969 612.660156 430.109375 613.25 428.929688 C 669.300781 319.191406 597.023438 169.625 452.179688 95.285156 C 308.21875 21.535156 146.261719 49.265625 89.328125 157.53125 C 88.738281 158.710938 88.148438 159.890625 87.558594 161.070312 Z M 87.558594 161.070312 " fill-opacity="1" fill-rule="nonzero"/><path fill="#000000" d="M 61.597656 234.820312 C 87.851562 109.148438 238.304688 34.808594 397.605469 68.734375 C 556.902344 102.367188 664.875 231.574219 638.621094 356.949219 C 638.621094 357.835938 638.621094 358.425781 638.324219 359.3125 C 638.621094 357.835938 638.914062 356.65625 639.210938 355.179688 C 665.464844 229.804688 557.496094 100.59375 398.195312 66.964844 C 240.074219 33.335938 90.507812 106.496094 62.777344 230.394531 C 62.1875 231.871094 61.894531 233.34375 61.597656 234.820312 Z M 61.597656 234.820312 " fill-opacity="1" fill-rule="nonzero"/><g clip-path="url(#727f831a42)"><path fill="#000000" d="M 56.289062 318.304688 C 46.257812 189.6875 169.566406 75.226562 332.113281 62.835938 C 494.660156 50.445312 634.488281 144.550781 644.519531 273.464844 C 644.519531 274.351562 644.519531 275.234375 644.8125 276.121094 C 644.8125 274.644531 644.519531 273.171875 644.519531 271.992188 C 634.195312 143.074219 494.363281 48.675781 331.820312 61.066406 C 170.75 73.457031 47.734375 186.144531 55.992188 313.882812 C 55.992188 315.355469 56.289062 316.832031 56.289062 318.304688 Z M 56.289062 318.304688 " fill-opacity="1" fill-rule="nonzero"/></g><path fill="#000000" d="M 73.988281 397.957031 C 30.03125 279.660156 118.238281 138.058594 271.046875 81.714844 C 423.859375 25.371094 583.453125 75.519531 627.410156 193.816406 C 627.703125 194.40625 628 195.289062 628.292969 195.878906 C 627.703125 194.699219 627.410156 193.519531 626.820312 192.046875 C 582.863281 73.75 423.269531 23.601562 270.457031 79.945312 C 118.828125 135.996094 30.328125 275.824219 72.511719 393.824219 C 73.101562 395.300781 73.398438 396.480469 73.988281 397.957031 Z M 73.988281 397.957031 " fill-opacity="1" fill-rule="nonzero"/><path fill="#000000" d="M 107.617188 462.5625 C 39.769531 364.324219 93.753906 210.039062 228.273438 117.707031 C 362.792969 25.664062 526.519531 30.679688 594.371094 128.914062 C 594.664062 129.503906 594.960938 130.09375 595.253906 130.683594 C 594.664062 129.503906 594.074219 128.621094 593.1875 127.441406 C 525.339844 29.207031 361.613281 24.191406 227.09375 116.230469 C 93.753906 207.679688 39.175781 360.785156 105.554688 459.316406 C 106.144531 460.496094 106.734375 461.382812 107.617188 462.5625 Z M 107.617188 462.5625 " fill-opacity="1" fill-rule="nonzero"/><path fill="#000000" d="M 147.738281 509.464844 C 68.382812 434.535156 95.226562 278.1875 207.625 160.183594 C 320.019531 42.183594 475.1875 7.078125 554.25 82.011719 C 554.839844 82.304688 555.132812 82.601562 555.429688 82.894531 C 554.542969 82.011719 553.660156 81.421875 553.070312 80.535156 C 473.714844 5.605469 318.542969 40.710938 206.148438 158.710938 C 94.636719 276.121094 67.203125 431.585938 145.378906 507.105469 C 146.261719 507.992188 147.148438 508.582031 147.738281 509.464844 Z M 147.738281 509.464844 " fill-opacity="1" fill-rule="nonzero"/><path fill="#000000" d="M 188.449219 541.621094 C 108.796875 489.40625 117.058594 336.597656 207.03125 200.894531 C 297.007812 64.898438 434.480469 -2.65625 514.128906 49.558594 C 514.425781 49.855469 514.71875 49.855469 515.015625 50.148438 C 514.128906 49.558594 513.242188 48.96875 512.359375 48.378906 C 432.707031 -3.835938 295.238281 63.71875 205.261719 199.714844 C 115.878906 334.824219 107.027344 487.046875 185.792969 539.851562 C 186.679688 540.441406 187.5625 541.03125 188.449219 541.621094 Z M 188.449219 541.621094 " fill-opacity="1" fill-rule="nonzero"/><path fill="#000000" d="M 226.796875 562.863281 C 155.40625 529.820312 153.34375 383.5 222.078125 235.707031 C 290.8125 87.910156 404.683594 -5.015625 476.074219 28.023438 C 476.367188 28.023438 476.367188 28.320312 476.664062 28.320312 C 475.777344 28.023438 474.894531 27.433594 474.007812 27.140625 C 402.617188 -5.898438 288.75 87.023438 220.011719 234.820312 C 151.277344 382.027344 153.34375 528.050781 224.144531 561.679688 C 225.027344 561.976562 225.914062 562.566406 226.796875 562.863281 Z M 226.796875 562.863281 " fill-opacity="1" fill-rule="nonzero"/><path fill="#000000" d="M 262.492188 576.726562 C 205.558594 559.027344 199.066406 418.605469 248.332031 263.140625 C 297.597656 107.675781 383.445312 -3.539062 440.378906 14.160156 L 440.671875 14.160156 C 440.082031 13.863281 439.199219 13.570312 438.3125 13.273438 C 381.378906 -4.425781 295.238281 106.789062 246.269531 262.253906 C 197.003906 417.425781 203.199219 557.550781 259.839844 575.839844 C 260.722656 576.136719 261.609375 576.433594 262.492188 576.726562 Z M 262.492188 576.726562 " fill-opacity="1" fill-rule="nonzero"/><path fill="#000000" d="M 296.125 584.988281 C 258.066406 577.90625 251.875 442.207031 282.554688 282.316406 C 313.234375 122.425781 368.988281 -1.476562 407.339844 5.605469 C 406.453125 5.308594 405.570312 5.308594 404.683594 5.015625 C 366.628906 -2.066406 310.578125 121.835938 279.898438 281.726562 C 249.21875 441.617188 255.414062 577.023438 293.46875 584.398438 C 294.351562 584.691406 295.238281 584.691406 296.125 584.988281 Z M 296.125 584.988281 " fill-opacity="1" fill-rule="nonzero"/><path fill="#000000" d="M 327.984375 589.117188 C 311.167969 587.640625 308.21875 454.890625 321.199219 292.640625 C 334.179688 130.09375 358.367188 -0.296875 375.183594 0.886719 C 374.296875 0.886719 373.414062 0.886719 372.527344 0.589844 C 356.007812 -0.589844 331.820312 130.09375 318.542969 292.347656 C 305.5625 454.890625 308.511719 587.347656 325.328125 588.820312 C 326.507812 589.117188 327.394531 589.117188 327.984375 589.117188 Z M 327.984375 589.117188 " fill-opacity="1" fill-rule="nonzero"/><path fill="#000000" d="M 269.867188 578.792969 C 320.902344 593.246094 379.902344 593.246094 430.9375 578.792969 C 428.285156 579.675781 425.628906 580.265625 423.269531 580.855469 C 376.660156 592.65625 324.445312 592.65625 277.832031 580.855469 C 275.179688 580.265625 272.523438 579.675781 269.867188 578.792969 Z M 269.867188 578.792969 " fill-opacity="1" fill-rule="nonzero"/><path fill="#000000" d="M 175.761719 532.773438 C 255.707031 591.476562 398.785156 599.738281 495.25 551.0625 C 506.164062 545.457031 516.195312 539.554688 525.042969 532.773438 C 523.863281 533.65625 522.683594 534.542969 521.503906 535.132812 C 440.671875 592.953125 298.777344 599.738281 204.082031 550.472656 C 195.234375 545.75 186.972656 540.738281 179.304688 535.132812 C 178.125 534.542969 176.941406 533.65625 175.761719 532.773438 Z M 175.761719 532.773438 " fill-opacity="1" fill-rule="nonzero"/><path fill="#000000" d="M 120.304688 479.375 C 182.253906 556.667969 335.652344 588.820312 462.800781 551.0625 C 514.128906 536.015625 555.429688 510.644531 580.503906 479.375 C 579.621094 480.261719 579.027344 481.144531 578.144531 482.328125 C 515.308594 559.027344 362.203125 590 236.238281 551.652344 C 186.972656 536.605469 147.148438 512.417969 122.367188 482.328125 C 121.777344 481.441406 120.894531 480.554688 120.304688 479.375 Z M 120.304688 479.375 " fill-opacity="1" fill-rule="nonzero"/><path fill="#000000" d="M 83.429688 420.671875 C 125.613281 510.351562 279.308594 562.273438 426.808594 536.605469 C 518.847656 520.675781 590.828125 476.722656 617.085938 420.671875 C 616.789062 421.554688 616.199219 422.734375 615.902344 423.621094 C 572.539062 513.007812 418.546875 564.042969 271.933594 537.492188 C 181.957031 521.5625 111.453125 478.492188 84.902344 423.621094 C 84.609375 422.734375 84.019531 421.554688 83.429688 420.671875 Z M 83.429688 420.671875 " fill-opacity="1" fill-rule="nonzero"/><path fill="#000000" d="M 62.1875 357.835938 C 83.429688 454.890625 229.453125 523.035156 388.753906 510.054688 C 518.847656 499.4375 621.214844 437.191406 638.621094 357.835938 C 638.324219 359.015625 638.03125 360.195312 638.03125 361.082031 C 615.609375 457.839844 468.992188 525.101562 309.988281 511.53125 C 181.664062 500.617188 80.773438 439.257812 62.777344 361.082031 C 62.777344 360.195312 62.484375 359.015625 62.1875 357.835938 Z M 62.1875 357.835938 " fill-opacity="1" fill-rule="nonzero"/><g clip-path="url(#60cda1cbe7)"><path fill="#000000" d="M 55.402344 293.230469 C 54.8125 392.351562 186.679688 473.179688 349.519531 473.476562 C 512.359375 473.769531 644.8125 393.824219 645.40625 294.410156 C 645.40625 294.117188 645.40625 293.527344 645.40625 293.230469 C 645.40625 294.410156 645.40625 295.296875 645.40625 296.476562 C 644.8125 395.890625 512.359375 475.835938 349.519531 475.542969 C 187.269531 475.246094 55.992188 395.300781 55.402344 296.476562 C 55.402344 295.589844 55.402344 294.410156 55.402344 293.230469 Z M 55.402344 293.230469 " fill-opacity="1" fill-rule="nonzero"/></g><path fill="#000000" d="M 62.777344 228.921875 C 40.652344 325.679688 151.277344 414.769531 309.988281 428.339844 C 468.699219 441.910156 615.609375 374.652344 637.734375 277.890625 C 641.570312 261.664062 641.570312 245.144531 637.734375 228.921875 C 638.03125 230.101562 638.324219 230.984375 638.324219 232.164062 C 659.859375 328.925781 548.054688 418.015625 388.753906 430.703125 C 229.453125 443.679688 83.429688 375.535156 62.1875 278.480469 C 58.941406 262.847656 58.941406 247.210938 62.1875 231.871094 C 62.484375 230.984375 62.777344 229.804688 62.777344 228.921875 Z M 62.777344 228.921875 " fill-opacity="1" fill-rule="nonzero"/><path fill="#000000" d="M 84.902344 166.378906 C 41.539062 255.765625 125.316406 349.28125 271.933594 375.535156 C 418.546875 401.792969 572.539062 351.050781 615.902344 261.664062 C 630.949219 230.394531 630.949219 197.355469 615.902344 166.378906 C 616.496094 167.265625 616.789062 168.445312 617.378906 169.332031 C 659.5625 259.011719 574.308594 352.527344 427.105469 378.484375 C 279.601562 404.152344 125.613281 352.230469 83.429688 262.550781 C 68.972656 232.164062 68.972656 199.714844 83.429688 169.332031 C 84.019531 168.445312 84.609375 167.265625 84.902344 166.378906 Z M 84.902344 166.378906 " fill-opacity="1" fill-rule="nonzero"/><path fill="#000000" d="M 122.367188 107.675781 C 59.53125 184.375 110.273438 277.597656 236.238281 315.945312 C 362.203125 354.296875 515.308594 323.320312 578.144531 246.621094 C 614.132812 202.960938 614.132812 151.335938 578.144531 107.675781 C 579.027344 108.558594 579.621094 109.445312 580.503906 110.625 C 642.453125 187.914062 589.648438 281.429688 462.800781 319.191406 C 335.652344 356.65625 182.253906 324.5 120.304688 247.210938 C 85.789062 204.140625 85.789062 153.695312 120.304688 110.332031 C 120.894531 109.445312 121.777344 108.558594 122.367188 107.675781 Z M 122.367188 107.675781 " fill-opacity="1" fill-rule="nonzero"/><path fill="#000000" d="M 179.304688 54.871094 C 98.472656 112.394531 109.683594 198.832031 204.082031 248.097656 C 298.484375 297.359375 440.671875 290.574219 521.503906 233.050781 C 593.484375 181.71875 593.484375 106.199219 521.503906 54.871094 C 522.683594 55.753906 523.863281 56.640625 525.042969 57.230469 C 604.988281 115.933594 591.714844 202.960938 495.25 251.636719 C 398.785156 300.3125 255.707031 292.050781 175.761719 233.34375 C 106.144531 182.308594 106.144531 108.265625 175.761719 57.230469 C 176.941406 56.34375 178.125 55.460938 179.304688 54.871094 Z M 179.304688 54.871094 " fill-opacity="1" fill-rule="nonzero"/><path fill="#000000" d="M 277.539062 9.144531 C 181.664062 33.628906 136.234375 100.890625 176.351562 159.300781 C 216.472656 217.710938 327.097656 245.441406 423.269531 220.957031 C 519.144531 196.46875 564.574219 129.210938 524.453125 70.800781 C 505.277344 42.773438 468.992188 20.648438 423.269531 9.144531 C 425.921875 9.734375 428.578125 10.621094 430.9375 11.210938 C 526.222656 38.351562 567.523438 107.378906 523.273438 165.496094 C 478.730469 223.609375 365.449219 248.6875 269.867188 221.546875 C 174.582031 194.40625 133.28125 125.375 177.53125 67.261719 C 196.414062 42.480469 229.15625 22.714844 269.867188 11.210938 C 272.523438 10.324219 275.179688 9.734375 277.539062 9.144531 Z M 277.539062 9.144531 " fill-opacity="1" fill-rule="nonzero"/><path fill="#000000" d="M 204.082031 91.746094 C 204.082031 42.480469 269.574219 2.65625 350.402344 2.65625 C 431.234375 2.65625 496.722656 42.480469 496.722656 91.746094 C 496.722656 141.011719 431.234375 180.835938 350.402344 180.835938 C 269.574219 180.835938 204.082031 141.011719 204.082031 91.746094 Z M 201.722656 92.925781 C 201.722656 142.78125 268.097656 183.492188 350.402344 183.492188 C 432.414062 183.492188 499.082031 143.074219 499.082031 92.925781 C 499.082031 43.070312 432.707031 2.359375 350.402344 2.359375 C 268.394531 2.359375 201.722656 42.773438 201.722656 92.925781 Z M 201.722656 92.925781 " fill-opacity="1" fill-rule="nonzero"/><path fill="#000000" d="M 250.691406 74.636719 C 250.691406 41.003906 295.238281 13.863281 350.402344 13.863281 C 405.570312 13.863281 450.113281 41.300781 450.113281 74.636719 C 450.113281 108.265625 405.570312 135.40625 350.402344 135.40625 C 295.238281 135.40625 250.691406 108.265625 250.691406 74.636719 Z M 248.332031 75.519531 C 248.332031 109.742188 294.058594 137.765625 350.402344 137.765625 C 406.75 137.765625 452.472656 110.035156 452.472656 75.519531 C 452.472656 41.300781 406.75 13.273438 350.402344 13.273438 C 294.058594 13.273438 248.332031 41.003906 248.332031 75.519531 Z M 248.332031 75.519531 " fill-opacity="1" fill-rule="nonzero"/><path fill="#000000" d="M 300.546875 64.308594 C 300.546875 47.496094 322.96875 33.925781 350.402344 33.925781 C 378.132812 33.925781 400.257812 47.496094 400.257812 64.308594 C 400.257812 81.125 377.839844 94.695312 350.402344 94.695312 C 322.671875 94.695312 300.546875 81.125 300.546875 64.308594 Z M 297.894531 64.605469 C 297.894531 82.304688 321.492188 96.464844 350.402344 96.464844 C 379.3125 96.464844 402.914062 82.304688 402.914062 64.605469 C 402.914062 46.90625 379.3125 32.746094 350.402344 32.746094 C 321.492188 32.746094 297.894531 46.90625 297.894531 64.605469 Z M 297.894531 64.605469 " fill-opacity="1" fill-rule="nonzero"/></svg>