<?xml version="1.0" encoding="UTF-8" standalone="no"?><!DOCTYPE svg PUBLIC "-//W3C//DTD SVG 1.1//EN" "http://www.w3.org/Graphics/SVG/1.1/DTD/svg11.dtd"><svg width="100%" height="100%" viewBox="0 0 1738 1738" version="1.1" xmlns="http://www.w3.org/2000/svg" xmlns:xlink="http://www.w3.org/1999/xlink" xml:space="preserve" xmlns:serif="http://www.serif.com/" style="fill-rule:evenodd;clip-rule:evenodd;stroke-linecap:round;stroke-linejoin:round;"><path d="M342.442,868.054l0,-578.696c0,-79.375 65.312,-144.671 144.671,-144.671l578.696,0c46.283,-0.121 90.746,18.279 123.404,51.075l259.55,259.55c32.779,32.675 51.179,77.117 51.075,123.404l0,868.054c0,79.375 -65.312,144.671 -144.671,144.671" style="fill:none;fill-rule:nonzero;stroke:#000;stroke-width:144.63px;"/><path d="M1065.808,144.671l0,361.683c0,39.688 32.658,72.346 72.346,72.346l361.683,0" style="fill:none;fill-rule:nonzero;stroke:#000;stroke-width:144.63px;"/><path d="M924.396,1059.065l-0,417.142l119.183,0c114.408,0 208.571,-94.146 208.571,-208.571c0,-114.408 -94.146,-208.571 -208.571,-208.571l-119.183,0Z" style="fill:none;fill-rule:nonzero;stroke:#000;stroke-width:144.58px;"/><path d="M686.025,1476.207l0,-417.121l-208.571,297.954l-208.571,-297.954l0,417.121" style="fill:none;fill-rule:nonzero;stroke:#000;stroke-width:144.58px;"/></svg>