<?xml version="1.0" encoding="UTF-8" standalone="no"?><!DOCTYPE svg PUBLIC "-//W3C//DTD SVG 1.1//EN" "http://www.w3.org/Graphics/SVG/1.1/DTD/svg11.dtd"><svg width="100%" height="100%" viewBox="0 0 1301 1301" version="1.1" xmlns="http://www.w3.org/2000/svg" xmlns:xlink="http://www.w3.org/1999/xlink" xml:space="preserve" xmlns:serif="http://www.serif.com/" style="fill-rule:evenodd;clip-rule:evenodd;stroke-linejoin:round;stroke-miterlimit:2;"><g><clipPath id="_clip1"><path d="M158.16,0l984.288,0c87.348,0 158.16,70.812 158.16,158.16l0,984.288c0,87.348 -70.812,158.16 -158.16,158.16l-984.288,0c-87.348,0 -158.16,-70.812 -158.16,-158.16l0,-984.288c0,-87.348 70.812,-158.16 158.16,-158.16Z"/></clipPath><g clip-path="url(#_clip1)"><g><g><g><g><clipPath id="_clip2"><path d="M158.16,0l984.288,0c87.348,0 158.16,70.812 158.16,158.16l0,984.288c0,87.348 -70.812,158.16 -158.16,158.16l-984.288,0c-87.348,0 -158.16,-70.812 -158.16,-158.16l0,-984.288c0,-87.348 70.812,-158.16 158.16,-158.16Z"/></clipPath><g clip-path="url(#_clip2)"><rect x="0" y="0" width="1300.608" height="1300.608" style="fill:#eaecf0;fill-rule:nonzero;"/></g></g></g></g></g></g></g><path d="M812.305,550.326c195.161,-624.74 -127.235,-394.444 -379.861,140.451c83.898,-387.153 5.924,-369.813 -61.567,-228.906c-291.84,610.135 400.846,1006.402 599.219,241.688c62.457,-240.777 23.242,-439.605 -157.791,-153.234Z" style="fill:#818cf8;"/></svg>