<?xml version="1.0" encoding="UTF-8" standalone="no"?><!DOCTYPE svg PUBLIC "-//W3C//DTD SVG 1.1//EN" "http://www.w3.org/Graphics/SVG/1.1/DTD/svg11.dtd"><svg width="100%" height="100%" viewBox="0 0 739 201" version="1.1" xmlns="http://www.w3.org/2000/svg" xmlns:xlink="http://www.w3.org/1999/xlink" xml:space="preserve" xmlns:serif="http://www.serif.com/" style="fill-rule:evenodd;clip-rule:evenodd;stroke-linejoin:round;stroke-miterlimit:2;"><g><g><g><g><path d="M154.209,169.917c-4.542,-2.333 -6.812,-6.052 -6.812,-11.146c0,-2.198 0.479,-5.083 1.438,-8.667c1.25,-4.818 2.901,-9.427 4.958,-13.833c1.109,-2.609 2.214,-5.5 3.312,-8.667c1.094,-3.167 1.99,-6.609 2.688,-10.333c2.75,-6.333 5.188,-12.49 7.312,-18.479c2.135,-5.984 3.484,-9.802 4.042,-11.458c0.135,-0.958 2.406,-6.188 6.812,-15.688l3.5,-7.438c3.302,-9.219 6.365,-16.651 9.188,-22.292c2.833,-5.651 6.38,-11.714 10.646,-18.187c2.193,-3.568 5.5,-5.354 9.917,-5.354c2.609,0 4.943,0.62 7,1.854c2.068,1.24 3.448,2.958 4.146,5.167c1.234,2.891 2.156,6.057 2.771,9.5c0.625,3.432 1.073,9.557 1.354,18.375c0.135,2.75 0.208,6.745 0.208,11.979c0.276,11.557 0.615,20.328 1.021,26.312c0.417,5.99 1.312,11.458 2.688,16.417c0.833,5.516 1.318,9.161 1.458,10.938c0.818,6.474 1.568,11.5 2.25,15.083c0.693,3.583 1.385,5.375 2.083,5.375c1.651,0 3.958,-3.854 6.917,-11.562c2.958,-7.708 7.396,-23.609 13.312,-47.708c0.833,-2.75 1.797,-6.734 2.896,-11.958c1.094,-5.234 1.922,-10.333 2.479,-15.292c1.51,-5.635 2.99,-11.521 4.438,-17.646c1.443,-6.135 2.167,-9.479 2.167,-10.021c0,-0.693 0.031,-1.38 0.104,-2.062c0.068,-0.693 0.031,-1.521 -0.104,-2.479c0.552,0 1.135,-0.896 1.75,-2.688c0.625,-1.792 0.938,-3.443 0.938,-4.958c0,-3.984 0.964,-6.943 2.896,-8.875c1.51,-2.75 3.714,-4.125 6.604,-4.125c2.193,0 4.255,0.724 6.188,2.167c1.927,1.448 3.094,3.135 3.5,5.062c0.417,2.891 -1.51,13.417 -5.771,31.583c0,1.656 -0.969,6.615 -2.896,14.875c-1.24,4.682 -2.203,9.156 -2.896,13.417c-0.542,3.99 -1.198,7.427 -1.958,10.312c-0.75,2.891 -1.406,4.271 -1.958,4.146c-5.641,24.224 -12.87,46.385 -21.688,66.479c-2.057,4.818 -4.531,8.568 -7.417,11.25c-2.891,2.677 -5.917,4.021 -9.083,4.021c-3.865,0 -7.375,-1.995 -10.542,-5.979c-4.125,-5.375 -7.156,-10.844 -9.083,-16.417c-1.932,-5.568 -3.516,-13.589 -4.75,-24.062c-2.474,-15.276 -3.708,-30.693 -3.708,-46.25l0,-6.604c0.135,-9.635 -0.479,-14.458 -1.854,-14.458c-0.833,0 -1.807,1.245 -2.917,3.729c-1.099,2.474 -2.469,6.12 -4.104,10.938c-0.698,2.208 -3.792,10.333 -9.292,24.375l-3.521,9.083c-2.474,4.948 -4.333,9.969 -5.583,15.062c-4.266,11.016 -7.604,20.792 -10.021,29.333c-2.406,8.531 -3.74,13.339 -4,14.438c-0.417,1.51 -0.802,2.958 -1.146,4.333c-0.349,1.375 -0.729,2.615 -1.146,3.729c-1.099,2.885 -1.995,4.844 -2.688,5.875c-0.682,1.042 -1.573,1.562 -2.667,1.562c-1.375,0 -3.167,-0.698 -5.375,-2.083Z" style="fill:#fff;fill-rule:nonzero;"/></g></g></g><g><g><g><path d="M297.087,152.375c-7.849,0 -14.182,-2.198 -19,-6.604c-4.823,-4.401 -7.229,-10.667 -7.229,-18.792c0,-3.167 0.208,-6.677 0.625,-10.542c0.276,-3.292 1.615,-7.823 4.021,-13.604c2.417,-5.792 5.719,-11.438 9.917,-16.938c4.193,-5.51 9.115,-9.573 14.771,-12.188c2.609,-1.234 4.812,-2.094 6.604,-2.583c1.792,-0.484 3.854,-0.729 6.188,-0.729c5.651,0 10.229,1.036 13.729,3.104c3.51,2.073 5.99,4.411 7.438,7.021c1.443,2.615 2.167,4.885 2.167,6.812l0,1.646c0,1.656 -0.969,4.688 -2.896,9.104c-1.917,4.406 -4.979,8.536 -9.188,12.396c-4.198,3.849 -9.599,5.974 -16.208,6.375c-3.292,0 -6.49,-0.302 -9.583,-0.917c-3.099,-0.625 -5.062,-0.938 -5.896,-0.938c-2.073,0 -3.385,0.76 -3.938,2.271c-0.542,1.516 -0.812,4.062 -0.812,7.646c0.417,3.849 1.484,6.531 3.208,8.042c1.719,1.516 4.234,2.271 7.542,2.271c1.635,0 3.562,-0.479 5.771,-1.438c2.208,-1.094 4.823,-2.818 7.854,-5.167c1.651,-1.375 2.958,-2.333 3.917,-2.875c0.958,-0.552 2.125,-0.833 3.5,-0.833c1.25,0 2.698,0.828 4.354,2.479c1.651,1.656 2.542,3.24 2.667,4.75c-0.266,1.656 -1.781,4.135 -4.542,7.438c-2.75,3.292 -6.328,6.25 -10.729,8.875c-4.406,2.615 -9.156,3.917 -14.25,3.917Zm7.229,-49.771c2.609,0 4.401,-0.271 5.375,-0.812c1.375,-0.693 3.469,-2.448 6.292,-5.271c2.818,-2.818 4.297,-4.776 4.438,-5.875c0,-1.375 -0.583,-2.505 -1.75,-3.396c-1.167,-0.901 -2.786,-1.49 -4.854,-1.771l-2.271,0c-1.792,0 -4.375,1.479 -7.75,4.438c-3.375,2.958 -6.302,6.37 -8.771,10.229c0.135,0.682 1.167,1.266 3.083,1.75c1.927,0.474 4,0.708 6.208,0.708Z" style="fill:#fff;fill-rule:nonzero;"/></g></g></g><g><g><g><path d="M380.495,153.604c-0.958,0.552 -2.229,0.344 -3.812,-0.625c-1.583,-0.958 -3.135,-2.396 -4.646,-4.312c-1.099,-1.792 -1.854,-3.547 -2.271,-5.271c-0.417,-1.719 -0.625,-4.234 -0.625,-7.542l0.208,-4.75c0,-1.234 -0.203,-1.854 -0.604,-1.854c-0.417,0 -1.349,0.656 -2.792,1.958c-1.448,1.307 -3.271,2.995 -5.479,5.062c-4.125,3.99 -7.604,7.052 -10.438,9.188c-2.823,2.141 -5.12,3.141 -6.896,3c-1.516,0 -3.656,-1.339 -6.417,-4.021c-2.75,-2.693 -4.604,-5.276 -5.562,-7.75c-0.417,-1.651 -0.625,-3.51 -0.625,-5.583c0,-6.333 1.375,-14.042 4.125,-23.125c2.75,-9.083 5.984,-16.958 9.708,-23.625c3.719,-6.677 6.818,-9.885 9.292,-9.625c2.208,0.281 4.167,1.349 5.875,3.208c1.719,1.865 3.135,4.099 4.25,6.708c0.401,0.833 0.604,1.521 0.604,2.062c0,0.974 -0.552,1.938 -1.646,2.896c-2.073,2.75 -4.688,7.26 -7.854,13.521c-3.156,6.266 -5.698,11.979 -7.625,17.146c-1.932,5.167 -2.417,7.75 -1.458,7.75c1.927,0 3.688,-0.479 5.271,-1.438c1.583,-0.969 3.677,-2.698 6.292,-5.188c4.958,-4.943 9.776,-11.271 14.458,-18.979c5.776,-9.219 8.943,-14.594 9.5,-16.125l2.271,-4.125c1.375,-2.75 2.401,-4.568 3.083,-5.458c0.693,-0.901 1.526,-1.49 2.5,-1.771l4.75,0c0.818,0.141 1.776,0.766 2.875,1.875c1.25,0.542 2.422,1.302 3.521,2.271c1.094,0.958 1.646,1.786 1.646,2.479l-3.292,7.625l-1.875,4.333c-3.708,8.266 -6.531,14.844 -8.458,19.729c-1.932,4.891 -3.375,9.948 -4.333,15.167c-0.141,0.698 -0.208,1.87 -0.208,3.521c0,4.125 0.417,7.016 1.25,8.667c1.234,2.474 2.469,4.266 3.708,5.375c1.094,0.823 1.094,1.823 0,3c-1.099,1.167 -2.646,2.229 -4.646,3.188c-2,0.958 -3.208,1.438 -3.625,1.438Z" style="fill:#fff;fill-rule:nonzero;"/></g></g></g><g><g><g><path d="M386.481,200.688c-1.375,0 -2.406,-0.62 -3.083,-1.854c-0.141,-0.141 -0.766,-0.969 -1.875,-2.479c-1.099,-1.516 -1.646,-3.719 -1.646,-6.604c0,-0.557 0.135,-1.661 0.417,-3.312c1.51,-5.781 2.271,-9.771 2.271,-11.979c0,-0.682 0.135,-1.677 0.417,-2.979c0.276,-1.307 0.484,-2.516 0.625,-3.625c0.542,-0.958 1.052,-2.438 1.542,-4.438c0.484,-1.99 0.729,-3.74 0.729,-5.25c0,-0.698 0.234,-1.495 0.708,-2.396c0.484,-0.891 1.073,-1.615 1.771,-2.167c0,-0.823 0.198,-2.089 0.604,-3.812c0.417,-1.719 0.693,-2.922 0.833,-3.604c0.693,-3.719 3.375,-12.531 8.042,-26.438c4.677,-13.901 8.672,-25.115 11.979,-33.646c1.651,-3.859 3.026,-7.443 4.125,-10.75c1.109,-3.302 1.667,-5.646 1.667,-7.021c0,-0.542 0.167,-1.052 0.5,-1.542c0.344,-0.484 0.938,-1.135 1.771,-1.958c1.094,-1.109 2.542,-1.667 4.333,-1.667c2.333,0 4.604,0.76 6.812,2.271c0.958,1.516 1.646,2.828 2.062,3.938c0.417,1.099 0.625,2.333 0.625,3.708c0,0.417 -0.141,1.724 -0.417,3.917c0,2.906 -0.828,5.531 -2.479,7.875c-1.656,2.333 -2.411,3.432 -2.271,3.292c6.75,-4.135 13.01,-6.208 18.792,-6.208c6.193,0 11.146,2.177 14.854,6.521c3.719,4.333 5.583,9.458 5.583,15.375c0,2.333 -1.104,5.807 -3.312,10.417c-2.198,4.615 -3.979,7.542 -5.354,8.792c-0.833,0 -1.938,1.448 -3.312,4.333c-1.656,2.198 -4.786,4.5 -9.396,6.917c-4.615,2.406 -7.745,3.333 -9.396,2.792c-0.125,0 -0.328,0.177 -0.604,0.521c-0.281,0.333 -0.417,0.781 -0.417,1.333c0,0.542 -2.073,1.51 -6.208,2.896c-4.125,1.375 -7.703,2.062 -10.729,2.062c-1.656,0 -2.896,-0.104 -3.729,-0.312c-0.823,-0.208 -1.641,-0.656 -2.458,-1.354c-0.974,0.974 -1.458,1.87 -1.458,2.688c0,1.375 -0.688,3.542 -2.062,6.5c-1.375,2.958 -2.474,4.438 -3.292,4.438c-0.141,0.135 -0.312,0.417 -0.521,0.833c-0.208,0.417 -0.036,0.901 0.521,1.458c0,0.401 -0.073,1.359 -0.208,2.875c-0.141,1.51 -0.49,2.688 -1.042,3.521c0,1.234 -0.208,2.917 -0.625,5.042c-0.406,2.135 -0.885,3.755 -1.438,4.854c0,1.651 -0.245,3.271 -0.729,4.854c-0.474,1.583 -0.99,2.375 -1.542,2.375c-0.823,0.276 -1.229,2.276 -1.229,6c-0.141,3.302 -1.208,6.26 -3.208,8.875c-2,2.609 -3.891,3.917 -5.667,3.917l-1.875,0.208Zm28.292,-72.479c1.927,0 5.542,-1.062 10.833,-3.188c5.302,-2.135 9.193,-4.234 11.667,-6.292c3.167,-2.625 5.573,-5.031 7.229,-7.229c1.651,-2.208 2.479,-4.417 2.479,-6.625c0,-1.917 -0.62,-3.771 -1.854,-5.562c-0.958,-1.51 -2.406,-2.271 -4.333,-2.271c-4.542,0 -10.458,3.51 -17.75,10.521c-2.49,2.625 -4.698,5.906 -6.625,9.833c-1.917,3.917 -2.875,6.906 -2.875,8.958c0,1.24 0.406,1.854 1.229,1.854Z" style="fill:#fff;fill-rule:nonzero;"/></g></g></g><g><g><g><path d="M476.307,148.667c-2.349,0.542 -5.177,-0.698 -8.479,-3.729c-3.292,-3.026 -5.219,-5.844 -5.771,-8.458c-0.281,-1.375 -0.417,-2.547 -0.417,-3.521c0,-5.359 1.719,-11.859 5.167,-19.5c3.443,-7.635 8.089,-14.833 13.938,-21.583c5.844,-6.75 12.281,-11.635 19.312,-14.667c2.885,-1.51 4.74,-2.271 5.562,-2.271c0.833,0 2.693,0.76 5.583,2.271c2.75,0.698 4.948,1.458 6.604,2.292c1.651,0.823 3.167,2.125 4.542,3.917c1.792,3.573 3.094,7.974 3.917,13.208c0.833,2.891 1.25,4.953 1.25,6.188c0,1.115 -0.417,2.078 -1.25,2.896c-0.141,0.141 -0.385,0.417 -0.729,0.833c-0.333,0.406 -0.5,0.708 -0.5,0.917c0,0.208 0.135,0.312 0.417,0.312c0,0.141 -0.073,0.453 -0.208,0.938c-0.141,0.49 -0.417,1.141 -0.833,1.958c-1.656,5.24 -2.479,9.302 -2.479,12.188c0,0.958 0.135,2.125 0.417,3.5c1.375,3.583 3.094,5.375 5.167,5.375c1.927,0 4.13,-1.234 6.604,-3.708c2.068,-1.385 4.13,-2.083 6.188,-2.083c1.234,0 1.854,0.349 1.854,1.042c0.135,0.141 0.417,0.349 0.833,0.625c0.417,0.281 0.833,0.417 1.25,0.417c0.542,0 0.812,0.62 0.812,1.854c0,1.099 -0.245,2.542 -0.729,4.333c-0.474,1.792 -1.057,3.24 -1.75,4.333c-0.958,0.958 -1.719,1.786 -2.271,2.479c-0.542,0.682 -0.812,1.229 -0.812,1.646l-3.104,2.896c-2.615,1.516 -5.708,2.271 -9.292,2.271c-3.724,0 -6.682,-0.755 -8.875,-2.271c-2.208,-1.51 -4.281,-3.401 -6.208,-5.667c-1.917,-2.276 -3.156,-4.312 -3.708,-6.104l-1.042,-2.062l-5.979,3.917l-5.167,5.375c-1.099,1.375 -2.057,2.062 -2.875,2.062l-2.083,0c0,0.958 -1.932,2.135 -5.792,3.521c-3.849,1.375 -6.87,2.062 -9.062,2.062Zm4.333,-17.354c1.51,0 4.646,-1.75 9.396,-5.25c4.75,-3.51 7.948,-6.302 9.604,-8.375c0.542,-0.693 1.255,-1.693 2.146,-3c0.901,-1.302 1.698,-2.297 2.396,-2.979c2.193,-2.625 3.802,-4.729 4.833,-6.312c1.042,-1.583 1.562,-3.13 1.562,-4.646c0,-1.094 -0.479,-2.609 -1.438,-4.542c-0.557,-1.651 -1.385,-2.479 -2.479,-2.479c-0.557,0 -2.141,0.49 -4.75,1.458c-2.615,1.516 -5.677,4.615 -9.188,9.292c-3.516,4.682 -6.583,9.432 -9.208,14.25c-2.615,4.807 -3.917,8.312 -3.917,10.521c0,0.417 0.135,0.833 0.417,1.25c0.276,0.406 0.484,0.677 0.625,0.812Z" style="fill:#fff;fill-rule:nonzero;"/></g></g></g><g><g><g><path d="M536.807,190.771c-2.349,0 -4.521,-1.24 -6.521,-3.708c-1.99,-2.474 -2.979,-5.292 -2.979,-8.458c0,-1.25 0.198,-2.495 0.604,-3.729c0.135,-0.542 0.521,-1.812 1.146,-3.812c0.625,-2 1,-3.688 1.125,-5.062c0.276,-1.516 1.104,-4.271 2.479,-8.271c1.385,-3.99 2.49,-6.667 3.312,-8.042c0.693,-1.234 1.24,-2.714 1.646,-4.438c0.417,-1.719 0.625,-3.198 0.625,-4.438c0.958,-3.026 1.854,-5.089 2.688,-6.188c0.958,-3.026 1.984,-5.365 3.083,-7.021c0.135,-0.417 0.312,-1.417 0.521,-3c0.208,-1.583 0.656,-2.51 1.354,-2.792c0.401,-1.927 0.74,-3.234 1.021,-3.917c0.969,-4.26 2.76,-9.63 5.375,-16.104c2.068,-5.917 3.104,-9.906 3.104,-11.979c0,-2.208 -0.76,-3.583 -2.271,-4.125c-1.516,-0.552 -2.271,-2.484 -2.271,-5.792c0,-1.792 0.271,-3.443 0.812,-4.958c0.552,-1.51 1.312,-2.469 2.271,-2.875c2.068,-0.833 4.755,-1.25 8.062,-1.25c2.193,0 3.292,0.208 3.292,0.625c0,0.417 0.068,0.729 0.208,0.938c0.135,0.198 0.417,0.292 0.833,0.292c0.417,-0.542 1.443,0.875 3.083,4.25c1.651,3.365 2.479,5.599 2.479,6.708c-0.266,0.406 -0.365,0.677 -0.292,0.812c0.068,0.141 0.302,0.208 0.708,0.208c0.969,-0.417 2.797,-1.344 5.479,-2.792c2.677,-1.443 4.365,-2.573 5.062,-3.396c0.276,-0.135 0.755,-0.38 1.438,-0.729c0.693,-0.344 1.24,-0.719 1.646,-1.125c1.51,-0.552 3.234,-0.833 5.167,-0.833c2.208,0 4.339,0.349 6.396,1.042c2.068,0.682 3.792,1.641 5.167,2.875c2.068,2.625 3.792,5.661 5.167,9.104c1.375,3.432 2.062,6.802 2.062,10.104c0,2.75 -0.552,5.573 -1.646,8.458c-0.281,0.833 -1.141,2.458 -2.583,4.875c-1.448,2.406 -2.448,4.016 -3,4.833c-5.5,8.542 -13.073,15.562 -22.708,21.062c-1.792,1.24 -4.375,2.375 -7.75,3.417c-3.365,1.031 -5.802,1.542 -7.312,1.542c-0.833,0 -1.703,-0.719 -2.604,-2.167c-0.891,-1.443 -1.677,-3.13 -2.354,-5.062c-1.792,4.266 -2.828,7.156 -3.104,8.667c0,0.417 -0.104,1.078 -0.312,1.979c-0.208,0.891 -0.583,1.542 -1.125,1.958c0,0.141 -0.104,0.49 -0.312,1.042c-0.208,0.542 -0.661,1.292 -1.354,2.25l-3.5,10.125c-1.656,3.984 -2.688,7.151 -3.104,9.5c-0.417,4.818 -1.521,9.255 -3.312,13.312c-1.781,4.052 -4.115,6.083 -7,6.083Zm32.417,-67.312c2.052,-0.958 4.969,-2.464 8.75,-4.521c3.792,-2.068 6.312,-3.859 7.562,-5.375c0.958,-1.109 1.609,-2.281 1.958,-3.521c0.344,-1.234 0.651,-2.333 0.917,-3.292c1.375,-3.443 2.339,-5.99 2.896,-7.646c0.417,-0.833 0.625,-1.797 0.625,-2.896c0,-1.51 -0.417,-2.677 -1.25,-3.5c-1.656,-0.135 -4.307,0.656 -7.958,2.375c-3.641,1.724 -7.042,4.646 -10.208,8.771c-4.542,5.917 -6.812,10.938 -6.812,15.062c0,1.391 0.302,2.495 0.917,3.312c0.625,0.823 1.49,1.229 2.604,1.229Z" style="fill:#fff;fill-rule:nonzero;"/></g></g></g><g><g><g><path d="M633.424,152.375c-7.849,0 -14.182,-2.198 -19,-6.604c-4.823,-4.401 -7.229,-10.667 -7.229,-18.792c0,-3.167 0.208,-6.677 0.625,-10.542c0.276,-3.292 1.615,-7.823 4.021,-13.604c2.417,-5.792 5.719,-11.438 9.917,-16.938c4.193,-5.51 9.115,-9.573 14.771,-12.188c2.609,-1.234 4.812,-2.094 6.604,-2.583c1.792,-0.484 3.854,-0.729 6.188,-0.729c5.651,0 10.229,1.036 13.729,3.104c3.51,2.073 5.99,4.411 7.438,7.021c1.443,2.615 2.167,4.885 2.167,6.812l0,1.646c0,1.656 -0.969,4.688 -2.896,9.104c-1.917,4.406 -4.979,8.536 -9.188,12.396c-4.198,3.849 -9.599,5.974 -16.208,6.375c-3.292,0 -6.49,-0.302 -9.583,-0.917c-3.099,-0.625 -5.062,-0.938 -5.896,-0.938c-2.073,0 -3.385,0.76 -3.938,2.271c-0.542,1.516 -0.812,4.062 -0.812,7.646c0.417,3.849 1.484,6.531 3.208,8.042c1.719,1.516 4.234,2.271 7.542,2.271c1.635,0 3.562,-0.479 5.771,-1.438c2.208,-1.094 4.823,-2.818 7.854,-5.167c1.651,-1.375 2.958,-2.333 3.917,-2.875c0.958,-0.552 2.125,-0.833 3.5,-0.833c1.25,0 2.698,0.828 4.354,2.479c1.651,1.656 2.542,3.24 2.667,4.75c-0.266,1.656 -1.781,4.135 -4.542,7.438c-2.75,3.292 -6.328,6.25 -10.729,8.875c-4.406,2.615 -9.156,3.917 -14.25,3.917Zm7.229,-49.771c2.609,0 4.401,-0.271 5.375,-0.812c1.375,-0.693 3.469,-2.448 6.292,-5.271c2.818,-2.818 4.297,-4.776 4.438,-5.875c0,-1.375 -0.583,-2.505 -1.75,-3.396c-1.167,-0.901 -2.786,-1.49 -4.854,-1.771l-2.271,0c-1.792,0 -4.375,1.479 -7.75,4.438c-3.375,2.958 -6.302,6.37 -8.771,10.229c0.135,0.682 1.167,1.266 3.083,1.75c1.927,0.474 4,0.708 6.208,0.708Z" style="fill:#fff;fill-rule:nonzero;"/></g></g></g><g><g><g><path d="M672.853,149.271c-0.958,0 -2.229,-0.688 -3.812,-2.062c-1.583,-1.375 -2.516,-2.609 -2.792,-3.708c-0.141,-0.276 -0.208,-0.896 -0.208,-1.854c0,-1.792 0.823,-5.302 2.479,-10.542l1.458,-6.604c1.375,-6.052 2.609,-11.146 3.708,-15.271c0.417,-0.833 1.24,-3.172 2.479,-7.021c0.818,-3.026 1.922,-5.99 3.312,-8.896c1.651,-6.193 4.26,-12.318 7.833,-18.375c0.417,-0.677 1.104,-1.5 2.062,-2.458c0.969,-0.969 1.656,-1.458 2.062,-1.458c0.833,-0.818 2.005,-1.229 3.521,-1.229c2.193,0 4.188,0.76 5.979,2.271c1.792,2.057 2.688,4.26 2.688,6.604c0,2.615 -0.969,5.849 -2.896,9.708c-1.099,3.031 -2.885,6.885 -5.354,11.562c-1.932,3.432 -3.104,5.703 -3.521,6.812c1.651,-2.208 5.234,-6.339 10.75,-12.396c1.651,-1.792 3.234,-3.271 4.75,-4.438c1.51,-1.167 3.781,-2.714 6.812,-4.646c3.026,-2.208 5.427,-3.755 7.208,-4.646c1.792,-0.885 3.859,-1.333 6.208,-1.333c1.094,0 1.922,0.062 2.479,0.188c1.792,-0.125 3.677,1.052 5.667,3.521c2,2.474 3,5.292 3,8.458c0,1.24 -0.208,2.479 -0.625,3.729c-1.656,-0.276 -2.823,-0.417 -3.5,-0.417c-2.75,0 -5.198,0.552 -7.333,1.646c-2.141,1.099 -3.896,2.167 -5.271,3.208c-1.375,1.031 -2.271,1.682 -2.688,1.958c-4.807,3.167 -10.516,7.432 -17.125,12.792c-3.307,2.766 -5.786,5.182 -7.438,7.25c-1.656,2.057 -2.958,4.25 -3.917,6.583c-0.281,0.833 -1.594,4.042 -3.938,9.625c-2.333,5.573 -4.12,8.833 -5.354,9.792c-0.698,1.516 -2.49,2.271 -5.375,2.271c-1.516,0 -2.62,-0.208 -3.312,-0.625Z" style="fill:#fff;fill-rule:nonzero;"/></g></g></g></g><path d="M92.278,68.942c35.167,-112.562 -22.922,-71.068 -68.438,25.307c15.115,-69.755 1.068,-66.635 -11.094,-41.245c-52.583,109.932 72.224,181.328 107.964,43.547c11.255,-43.385 4.187,-79.208 -28.432,-27.609Z" style="fill:#fff;"/></svg>