<?xml version="1.0" encoding="UTF-8" standalone="no"?><!DOCTYPE svg PUBLIC "-//W3C//DTD SVG 1.1//EN" "http://www.w3.org/Graphics/SVG/1.1/DTD/svg11.dtd"><svg width="100%" height="100%" viewBox="0 0 2464 837" version="1.1" xmlns="http://www.w3.org/2000/svg" xmlns:xlink="http://www.w3.org/1999/xlink" xml:space="preserve" xmlns:serif="http://www.serif.com/" style="fill-rule:evenodd;clip-rule:evenodd;stroke-linejoin:round;stroke-miterlimit:2;"><g><g><g><path d="M28.383,707.983c-18.925,-9.721 -28.383,-25.217 -28.383,-46.442c0,-9.158 1.996,-21.179 5.992,-36.113c5.208,-20.075 12.088,-39.279 20.658,-57.637c4.621,-10.871 9.225,-22.917 13.8,-36.113c4.558,-13.196 8.292,-27.537 11.2,-43.054c11.458,-26.387 21.617,-52.042 30.467,-76.996c8.896,-24.933 14.517,-40.842 16.842,-47.742c0.562,-3.992 10.025,-25.783 28.383,-65.367l14.583,-30.992c13.758,-38.413 26.521,-69.379 38.283,-92.883c11.804,-23.546 26.583,-48.808 44.358,-75.779c9.138,-14.867 22.917,-22.308 41.321,-22.308c10.871,0 20.596,2.583 29.167,7.725c8.617,5.167 14.367,12.325 17.275,21.529c5.142,12.046 8.983,25.238 11.546,39.583c2.604,14.3 4.471,39.821 5.642,76.563c0.562,11.458 0.867,28.104 0.867,49.912c1.15,48.154 2.562,84.7 4.254,109.633c1.738,24.958 5.467,47.742 11.2,68.404c3.471,22.983 5.492,38.171 6.075,45.575c3.408,26.975 6.533,47.917 9.375,62.846c2.888,14.929 5.771,22.396 8.679,22.396c6.879,0 16.492,-16.058 28.821,-48.175c12.325,-32.117 30.817,-98.371 55.467,-198.783c3.471,-11.458 7.487,-28.058 12.067,-49.825c4.558,-21.808 8.008,-43.054 10.329,-63.717c6.292,-23.479 12.458,-48.004 18.492,-73.525c6.013,-25.562 9.029,-39.496 9.029,-41.754c0,-2.888 0.129,-5.75 0.433,-8.592c0.283,-2.888 0.129,-6.338 -0.433,-10.329c2.3,0 4.729,-3.733 7.292,-11.2c2.604,-7.467 3.908,-14.346 3.908,-20.658c0,-16.6 4.017,-28.929 12.067,-36.979c6.292,-11.458 15.475,-17.188 27.517,-17.188c9.138,0 17.729,3.017 25.783,9.029c8.029,6.033 12.892,13.062 14.583,21.092c1.737,12.046 -6.292,55.904 -24.046,131.596c0,6.9 -4.037,27.562 -12.067,61.979c-5.167,19.508 -9.179,38.15 -12.067,55.904c-2.258,16.625 -4.992,30.946 -8.158,42.967c-3.125,12.046 -5.858,17.796 -8.158,17.275c-23.504,100.933 -53.625,193.271 -90.367,276.996c-8.571,20.075 -18.879,35.7 -30.904,46.875c-12.046,11.154 -24.654,16.754 -37.846,16.754c-16.104,0 -30.729,-8.312 -43.925,-24.913c-17.188,-22.396 -29.817,-45.183 -37.846,-68.404c-8.05,-23.2 -14.65,-56.621 -19.792,-100.258c-10.308,-63.65 -15.45,-127.887 -15.45,-192.708l0,-27.517c0.562,-40.146 -1.996,-60.242 -7.725,-60.242c-3.471,0 -7.529,5.188 -12.154,15.537c-4.579,10.308 -10.288,25.5 -17.1,45.575c-2.908,9.2 -15.8,43.054 -38.717,101.562l-14.671,37.846c-10.308,20.617 -18.054,41.537 -23.262,62.758c-17.775,45.9 -31.683,86.633 -41.754,122.221c-10.025,35.546 -15.583,55.579 -16.667,60.158c-1.738,6.292 -3.342,12.325 -4.775,18.054c-1.454,5.729 -3.038,10.896 -4.775,15.538c-4.579,12.021 -8.312,20.183 -11.2,24.479c-2.842,4.342 -6.554,6.508 -11.113,6.508c-5.729,0 -13.196,-2.908 -22.396,-8.679l-0.004,0Z" style="fill:#fff;fill-rule:nonzero;"/></g></g></g><g><g><g><path d="M623.708,634.892c-32.704,0 -59.092,-9.158 -79.167,-27.517c-20.096,-18.337 -30.121,-44.446 -30.121,-78.3c0,-13.196 0.867,-27.821 2.604,-43.925c1.15,-13.717 6.729,-32.596 16.754,-56.683c10.071,-24.133 23.829,-47.658 41.321,-70.575c17.471,-22.958 37.979,-39.887 61.546,-50.783c10.871,-5.142 20.05,-8.725 27.517,-10.762c7.467,-2.017 16.058,-3.038 25.783,-3.038c23.546,0 42.621,4.317 57.204,12.933c14.625,8.637 24.958,18.379 30.992,29.254c6.012,10.896 9.029,20.354 9.029,28.383l0,6.858c0,6.9 -4.037,19.533 -12.067,37.933c-7.987,18.358 -20.746,35.567 -38.283,51.65c-17.492,16.038 -39.996,24.892 -67.533,26.562c-13.717,0 -27.042,-1.258 -39.929,-3.821c-12.912,-2.604 -21.092,-3.908 -24.567,-3.908c-8.637,0 -14.104,3.167 -16.408,9.463c-2.258,6.317 -3.383,16.925 -3.383,31.858c1.737,16.038 6.183,27.212 13.367,33.508c7.162,6.317 17.642,9.462 31.425,9.462c6.812,0 14.842,-1.996 24.046,-5.992c9.2,-4.558 20.096,-11.742 32.725,-21.529c6.879,-5.729 12.325,-9.721 16.321,-11.979c3.992,-2.3 8.854,-3.471 14.583,-3.471c5.208,0 11.242,3.45 18.142,10.329c6.879,6.9 10.592,13.5 11.112,19.792c-1.108,6.9 -7.421,17.229 -18.925,30.992c-11.458,13.717 -26.367,26.042 -44.704,36.979c-18.358,10.896 -38.15,16.321 -59.375,16.321l-0.008,0.004Zm30.121,-207.379c10.871,0 18.338,-1.129 22.396,-3.383c5.729,-2.887 14.454,-10.2 26.217,-21.963c11.742,-11.742 17.904,-19.9 18.492,-24.479c0,-5.729 -2.429,-10.438 -7.292,-14.15c-4.862,-3.754 -11.608,-6.208 -20.225,-7.379l-9.463,0c-7.467,0 -18.229,6.163 -32.292,18.492c-14.062,12.325 -26.258,26.542 -36.546,42.621c0.562,2.842 4.862,5.275 12.846,7.292c8.029,1.975 16.667,2.95 25.867,2.95Z" style="fill:#fff;fill-rule:nonzero;"/></g></g></g><g><g><g><path d="M971.242,640.013c-3.992,2.3 -9.287,1.433 -15.883,-2.604c-6.596,-3.992 -13.062,-9.983 -19.358,-17.967c-4.579,-7.467 -7.725,-14.779 -9.463,-21.962c-1.737,-7.163 -2.604,-17.642 -2.604,-31.425l0.867,-19.792c0,-5.142 -0.846,-7.725 -2.517,-7.725c-1.737,0 -5.621,2.733 -11.633,8.158c-6.033,5.446 -13.629,12.479 -22.829,21.092c-17.188,16.625 -31.683,29.383 -43.492,38.283c-11.762,8.921 -21.333,13.087 -28.733,12.5c-6.317,0 -15.233,-5.579 -26.737,-16.754c-11.458,-11.221 -19.183,-21.983 -23.175,-32.292c-1.737,-6.879 -2.604,-14.625 -2.604,-23.263c0,-26.388 5.729,-58.508 17.188,-96.354c11.458,-37.846 24.933,-70.658 40.45,-98.438c15.496,-27.821 28.408,-41.188 38.717,-40.104c9.2,1.171 17.362,5.621 24.479,13.367c7.162,7.771 13.062,17.079 17.708,27.95c1.671,3.471 2.517,6.338 2.517,8.592c0,4.058 -2.3,8.075 -6.858,12.067c-8.638,11.458 -19.533,30.25 -32.725,56.337c-13.15,26.108 -23.742,49.913 -31.771,71.442c-8.05,21.529 -10.071,32.292 -6.075,32.292c8.029,0 15.367,-1.996 21.963,-5.992c6.596,-4.038 15.321,-11.242 26.217,-21.617c20.658,-20.596 40.733,-46.963 60.242,-79.079c24.067,-38.413 37.263,-60.808 39.583,-67.188l9.462,-17.188c5.729,-11.458 10.004,-19.033 12.846,-22.742c2.888,-3.754 6.358,-6.208 10.417,-7.379l19.792,0c3.408,0.587 7.4,3.192 11.979,7.812c5.208,2.258 10.092,5.425 14.671,9.462c4.558,3.992 6.858,7.442 6.858,10.329l-13.717,31.771l-7.812,18.054c-15.45,34.442 -27.213,61.85 -35.242,82.204c-8.05,20.379 -14.062,41.45 -18.054,63.196c-0.588,2.908 -0.867,7.792 -0.867,14.671c0,17.188 1.737,29.233 5.208,36.113c5.142,10.308 10.287,17.775 15.45,22.396c4.558,3.429 4.558,7.596 0,12.5c-4.579,4.862 -11.025,9.288 -19.358,13.283c-8.333,3.992 -13.367,5.992 -15.104,5.992Z" style="fill:#fff;fill-rule:nonzero;"/></g></g></g><g><g><g><path d="M996.183,836.196c-5.729,0 -10.025,-2.583 -12.846,-7.725c-0.588,-0.587 -3.192,-4.037 -7.812,-10.329c-4.579,-6.317 -6.858,-15.496 -6.858,-27.517c0,-2.321 0.562,-6.921 1.737,-13.8c6.292,-24.087 9.463,-40.712 9.463,-49.913c0,-2.842 0.562,-6.987 1.737,-12.413c1.15,-5.446 2.017,-10.483 2.604,-15.104c2.258,-3.992 4.383,-10.158 6.425,-18.492c2.017,-8.292 3.037,-15.583 3.037,-21.875c0,-2.908 0.975,-6.229 2.95,-9.983c2.017,-3.712 4.471,-6.729 7.379,-9.029c0,-3.429 0.825,-8.704 2.517,-15.883c1.737,-7.162 2.887,-12.175 3.471,-15.017c2.888,-15.496 14.062,-52.212 33.508,-110.158c19.488,-57.921 36.133,-104.646 49.912,-140.192c6.879,-16.079 12.608,-31.012 17.188,-44.792c4.621,-13.758 6.946,-23.525 6.946,-29.254c0,-2.258 0.696,-4.383 2.083,-6.425c1.433,-2.017 3.908,-4.729 7.379,-8.158c4.558,-4.621 10.592,-6.946 18.054,-6.946c9.721,0 19.183,3.167 28.383,9.463c3.992,6.317 6.858,11.783 8.592,16.408c1.737,4.579 2.604,9.721 2.604,15.45c0,1.738 -0.588,7.183 -1.737,16.321c0,12.108 -3.45,23.046 -10.329,32.812c-6.9,9.721 -10.046,14.3 -9.463,13.717c28.125,-17.229 54.208,-25.867 78.3,-25.867c25.804,0 46.442,9.071 61.892,27.171c15.496,18.054 23.263,39.408 23.263,64.062c0,9.721 -4.6,24.196 -13.8,43.404c-9.158,19.229 -16.579,31.425 -22.308,36.633c-3.471,0 -8.075,6.033 -13.8,18.054c-6.9,9.158 -19.942,18.75 -39.15,28.821c-19.229,10.025 -32.271,13.887 -39.15,11.633c-0.521,0 -1.367,0.737 -2.517,2.171c-1.171,1.388 -1.737,3.254 -1.737,5.554c0,2.258 -8.638,6.292 -25.867,12.067c-17.188,5.729 -32.096,8.592 -44.704,8.592c-6.9,0 -12.067,-0.433 -15.537,-1.3c-3.429,-0.867 -6.838,-2.733 -10.242,-5.642c-4.058,4.058 -6.075,7.792 -6.075,11.2c0,5.729 -2.867,14.758 -8.592,27.083c-5.729,12.325 -10.308,18.492 -13.717,18.492c-0.588,0.562 -1.3,1.738 -2.171,3.471c-0.867,1.737 -0.15,3.754 2.171,6.075c0,1.671 -0.304,5.663 -0.867,11.979c-0.588,6.292 -2.042,11.2 -4.342,14.671c0,5.142 -0.867,12.154 -2.604,21.008c-1.692,8.896 -3.688,15.646 -5.992,20.225c0,6.879 -1.021,13.629 -3.037,20.225c-1.975,6.596 -4.125,9.896 -6.425,9.896c-3.429,1.15 -5.121,9.483 -5.121,25c-0.588,13.758 -5.033,26.083 -13.367,36.979c-8.333,10.871 -16.213,16.321 -23.612,16.321l-7.812,0.867l-0.004,-0.012Zm117.883,-301.996c8.029,0 23.092,-4.425 45.138,-13.283c22.092,-8.896 38.304,-17.642 48.612,-26.217c13.196,-10.938 23.221,-20.963 30.121,-30.121c6.879,-9.2 10.329,-18.404 10.329,-27.604c0,-7.988 -2.583,-15.712 -7.725,-23.175c-3.992,-6.292 -10.025,-9.463 -18.054,-9.463c-18.925,0 -43.575,14.625 -73.958,43.838c-10.375,10.938 -19.575,24.608 -27.604,40.971c-7.987,16.321 -11.979,28.775 -11.979,37.325c0,5.167 1.692,7.725 5.121,7.725l0,0.004Z" style="fill:#fff;fill-rule:nonzero;"/></g></g></g><g><g><g><path d="M1370.458,619.442c-9.787,2.258 -21.571,-2.908 -35.329,-15.538c-13.717,-12.608 -21.746,-24.35 -24.046,-35.242c-1.171,-5.729 -1.737,-10.612 -1.737,-14.671c0,-22.329 7.163,-49.412 21.529,-81.25c14.346,-31.813 33.704,-61.804 58.075,-89.929c24.35,-28.125 51.171,-48.479 80.467,-61.113c12.021,-6.292 19.75,-9.463 23.175,-9.463c3.471,0 11.221,3.167 23.263,9.463c11.458,2.908 20.617,6.075 27.517,9.55c6.879,3.429 13.196,8.854 18.925,16.321c7.467,14.887 12.892,33.225 16.321,55.033c3.471,12.046 5.208,20.637 5.208,25.783c0,4.646 -1.738,8.658 -5.208,12.067c-0.588,0.588 -1.604,1.738 -3.038,3.471c-1.387,1.692 -2.083,2.95 -2.083,3.821c0,0.867 0.562,1.3 1.738,1.3c0,0.588 -0.304,1.887 -0.867,3.908c-0.587,2.042 -1.738,4.754 -3.471,8.158c-6.9,21.833 -10.329,38.758 -10.329,50.783c0,3.992 0.562,8.854 1.738,14.583c5.729,14.929 12.892,22.396 21.529,22.396c8.029,0 17.208,-5.142 27.517,-15.45c8.617,-5.771 17.208,-8.679 25.783,-8.679c5.142,0 7.725,1.454 7.725,4.342c0.562,0.587 1.738,1.454 3.471,2.604c1.738,1.171 3.471,1.738 5.208,1.738c2.258,0 3.383,2.583 3.383,7.725c0,4.579 -1.021,10.592 -3.038,18.054c-1.975,7.467 -4.404,13.5 -7.292,18.054c-3.992,3.992 -7.163,7.442 -9.463,10.329c-2.258,2.842 -3.383,5.121 -3.383,6.858l-12.933,12.067c-10.896,6.317 -23.783,9.462 -38.717,9.462c-15.517,0 -27.842,-3.146 -36.979,-9.462c-9.2,-6.292 -17.837,-14.171 -25.867,-23.613c-7.988,-9.483 -13.15,-17.967 -15.45,-25.433l-4.342,-8.592l-24.912,16.321l-21.529,22.396c-4.579,5.729 -8.571,8.592 -11.979,8.592l-8.679,0c0,3.992 -8.05,8.896 -24.133,14.671c-16.037,5.729 -28.625,8.592 -37.758,8.592l-0.008,-0.008Zm18.054,-72.308c6.292,0 19.358,-7.292 39.15,-21.875c19.792,-14.625 33.117,-26.258 40.017,-34.896c2.258,-2.887 5.229,-7.054 8.942,-12.5c3.754,-5.425 7.075,-9.571 9.983,-12.413c9.138,-10.938 15.842,-19.704 20.138,-26.3c4.342,-6.596 6.508,-13.042 6.508,-19.358c0,-4.558 -1.996,-10.871 -5.992,-18.925c-2.321,-6.879 -5.771,-10.329 -10.329,-10.329c-2.321,0 -8.921,2.042 -19.792,6.075c-10.896,6.317 -23.654,19.229 -38.283,38.717c-14.65,19.508 -27.429,39.3 -38.367,59.375c-10.896,20.029 -16.321,34.633 -16.321,43.837c0,1.738 0.562,3.471 1.737,5.208c1.15,1.692 2.017,2.821 2.604,3.383l0.004,0Z" style="fill:#fff;fill-rule:nonzero;"/></g></g></g><g><g><g><path d="M1622.542,794.875c-9.788,0 -18.838,-5.167 -27.171,-15.45c-8.292,-10.308 -12.413,-22.05 -12.413,-35.242c0,-5.208 0.825,-10.396 2.517,-15.538c0.562,-2.258 2.171,-7.55 4.775,-15.883c2.604,-8.333 4.167,-15.367 4.688,-21.092c1.15,-6.317 4.6,-17.796 10.329,-34.463c5.771,-16.625 10.375,-27.779 13.8,-33.508c2.887,-5.142 5.167,-11.308 6.858,-18.492c1.738,-7.163 2.604,-13.325 2.604,-18.492c3.992,-12.608 7.725,-21.204 11.2,-25.783c3.992,-12.608 8.267,-22.354 12.846,-29.254c0.562,-1.738 1.3,-5.904 2.171,-12.5c0.867,-6.596 2.733,-10.458 5.642,-11.633c1.671,-8.029 3.083,-13.475 4.254,-16.321c4.038,-17.75 11.5,-40.125 22.396,-67.1c8.617,-24.654 12.933,-41.275 12.933,-49.912c0,-9.2 -3.167,-14.929 -9.462,-17.188c-6.317,-2.3 -9.463,-10.35 -9.463,-24.133c0,-7.467 1.129,-14.346 3.383,-20.658c2.3,-6.292 5.467,-10.287 9.462,-11.979c8.617,-3.471 19.812,-5.208 33.592,-5.208c9.137,0 13.717,0.867 13.717,2.604c0,1.737 0.283,3.037 0.867,3.908c0.562,0.825 1.738,1.217 3.471,1.217c1.738,-2.258 6.012,3.646 12.846,17.708c6.879,14.021 10.329,23.329 10.329,27.95c-1.108,1.692 -1.521,2.821 -1.217,3.383c0.283,0.588 1.258,0.867 2.95,0.867c4.038,-1.738 11.654,-5.6 22.829,-11.633c11.154,-6.012 18.188,-10.721 21.092,-14.15c1.15,-0.562 3.146,-1.583 5.992,-3.037c2.887,-1.433 5.167,-2.996 6.858,-4.688c6.292,-2.3 13.475,-3.471 21.529,-3.471c9.2,0 18.079,1.454 26.65,4.342c8.617,2.842 15.8,6.838 21.529,11.979c8.617,10.938 15.8,23.587 21.529,37.933c5.729,14.3 8.592,28.342 8.592,42.1c0,11.458 -2.3,23.221 -6.858,35.242c-1.171,3.471 -4.754,10.242 -10.762,20.312c-6.033,10.025 -10.2,16.733 -12.5,20.137c-22.917,35.592 -54.471,64.842 -94.617,87.758c-7.467,5.167 -18.229,9.896 -32.292,14.237c-14.021,4.296 -24.175,6.425 -30.467,6.425c-3.471,0 -7.096,-2.996 -10.85,-9.029c-3.712,-6.013 -6.987,-13.042 -9.808,-21.092c-7.467,17.775 -11.783,29.817 -12.933,36.112c0,1.737 -0.433,4.492 -1.3,8.246c-0.867,3.712 -2.429,6.425 -4.688,8.158c0,0.587 -0.433,2.042 -1.3,4.342c-0.867,2.258 -2.754,5.383 -5.642,9.375l-14.583,42.188c-6.9,16.6 -11.2,29.796 -12.933,39.583c-1.738,20.075 -6.338,38.562 -13.8,55.467c-7.421,16.883 -17.146,25.346 -29.167,25.346l-0.004,0.008Zm135.071,-280.467c8.55,-3.992 20.704,-10.267 36.458,-18.837c15.8,-8.617 26.3,-16.079 31.508,-22.396c3.992,-4.621 6.704,-9.504 8.158,-14.671c1.433,-5.142 2.713,-9.721 3.821,-13.717c5.729,-14.346 9.746,-24.958 12.067,-31.858c1.738,-3.471 2.604,-7.487 2.604,-12.067c0,-6.292 -1.738,-11.154 -5.208,-14.583c-6.9,-0.563 -17.946,2.733 -33.158,9.896c-15.171,7.183 -29.342,19.358 -42.533,36.546c-18.925,24.654 -28.383,45.575 -28.383,62.758c0,5.796 1.258,10.396 3.821,13.8c2.604,3.429 6.208,5.121 10.85,5.121l-0.004,0.008Z" style="fill:#fff;fill-rule:nonzero;"/></g></g></g><g><g><g><path d="M2025.113,634.892c-32.704,0 -59.092,-9.158 -79.167,-27.517c-20.096,-18.337 -30.121,-44.446 -30.121,-78.3c0,-13.196 0.867,-27.821 2.604,-43.925c1.15,-13.717 6.729,-32.596 16.754,-56.683c10.071,-24.133 23.829,-47.658 41.321,-70.575c17.471,-22.958 37.979,-39.887 61.546,-50.783c10.871,-5.142 20.05,-8.725 27.517,-10.762c7.467,-2.017 16.058,-3.038 25.783,-3.038c23.546,0 42.621,4.317 57.204,12.933c14.625,8.637 24.958,18.379 30.992,29.254c6.013,10.896 9.029,20.354 9.029,28.383l0,6.858c0,6.9 -4.038,19.533 -12.067,37.933c-7.988,18.358 -20.746,35.567 -38.283,51.65c-17.492,16.038 -39.996,24.892 -67.533,26.562c-13.717,0 -27.042,-1.258 -39.929,-3.821c-12.913,-2.604 -21.092,-3.908 -24.567,-3.908c-8.637,0 -14.104,3.167 -16.408,9.463c-2.258,6.317 -3.383,16.925 -3.383,31.858c1.738,16.038 6.183,27.212 13.367,33.508c7.163,6.317 17.642,9.462 31.425,9.462c6.812,0 14.842,-1.996 24.046,-5.992c9.2,-4.558 20.096,-11.742 32.725,-21.529c6.879,-5.729 12.325,-9.721 16.321,-11.979c3.992,-2.3 8.854,-3.471 14.583,-3.471c5.208,0 11.242,3.45 18.142,10.329c6.879,6.9 10.592,13.5 11.112,19.792c-1.108,6.9 -7.421,17.229 -18.925,30.992c-11.458,13.717 -26.367,26.042 -44.704,36.979c-18.358,10.896 -38.15,16.321 -59.375,16.321l-0.008,0.004Zm30.121,-207.379c10.871,0 18.337,-1.129 22.396,-3.383c5.729,-2.887 14.454,-10.2 26.217,-21.963c11.742,-11.742 17.904,-19.9 18.492,-24.479c0,-5.729 -2.429,-10.438 -7.292,-14.15c-4.863,-3.754 -11.608,-6.208 -20.225,-7.379l-9.463,0c-7.467,0 -18.229,6.163 -32.292,18.492c-14.062,12.325 -26.258,26.542 -36.546,42.621c0.562,2.842 4.863,5.275 12.846,7.292c8.029,1.975 16.667,2.95 25.867,2.95Z" style="fill:#fff;fill-rule:nonzero;"/></g></g></g><g><g><g><path d="M2189.4,621.958c-3.992,0 -9.288,-2.867 -15.883,-8.592c-6.596,-5.729 -10.483,-10.871 -11.633,-15.45c-0.588,-1.15 -0.867,-3.733 -0.867,-7.725c0,-7.467 3.429,-22.092 10.329,-43.925l6.075,-27.517c5.729,-25.217 10.871,-46.442 15.45,-63.629c1.737,-3.471 5.167,-13.217 10.329,-29.254c3.408,-12.608 8.008,-24.958 13.8,-37.067c6.879,-25.804 17.75,-51.325 32.637,-76.562c1.738,-2.821 4.6,-6.25 8.592,-10.242c4.038,-4.038 6.9,-6.075 8.592,-6.075c3.471,-3.408 8.354,-5.121 14.671,-5.121c9.138,0 17.45,3.167 24.913,9.462c7.467,8.571 11.2,17.75 11.2,27.517c0,10.896 -4.037,24.371 -12.067,40.45c-4.579,12.629 -12.021,28.688 -22.308,48.175c-8.05,14.3 -12.933,23.763 -14.671,28.383c6.879,-9.2 21.808,-26.412 44.792,-51.65c6.879,-7.467 13.475,-13.629 19.792,-18.492c6.292,-4.863 15.754,-11.308 28.383,-19.358c12.608,-9.2 22.613,-15.646 30.033,-19.358c7.467,-3.688 16.079,-5.554 25.867,-5.554c4.558,0 8.008,0.258 10.329,0.783c7.467,-0.521 15.321,4.383 23.613,14.671c8.333,10.308 12.5,22.05 12.5,35.242c0,5.167 -0.867,10.329 -2.604,15.538c-6.9,-1.15 -11.762,-1.738 -14.583,-1.738c-11.458,0 -21.658,2.3 -30.554,6.858c-8.921,4.579 -16.233,9.029 -21.963,13.367c-5.729,4.296 -9.462,7.008 -11.2,8.158c-20.029,13.196 -43.817,30.967 -71.354,53.3c-13.779,11.525 -24.108,21.592 -30.992,30.208c-6.9,8.571 -12.325,17.708 -16.321,27.429c-1.171,3.471 -6.642,16.842 -16.408,40.104c-9.721,23.221 -17.167,36.804 -22.308,40.8c-2.908,6.317 -10.375,9.462 -22.396,9.462c-6.317,0 -10.917,-0.867 -13.8,-2.604l0.017,0.004Z" style="fill:#fff;fill-rule:nonzero;"/></g></g></g></svg>