<?xml version="1.0" encoding="UTF-8" standalone="no"?><!DOCTYPE svg PUBLIC "-//W3C//DTD SVG 1.1//EN" "http://www.w3.org/Graphics/SVG/1.1/DTD/svg11.dtd"><svg width="100%" height="100%" viewBox="0 0 417 417" version="1.1" xmlns="http://www.w3.org/2000/svg" xmlns:xlink="http://www.w3.org/1999/xlink" xml:space="preserve" xmlns:serif="http://www.serif.com/" style="fill-rule:evenodd;clip-rule:evenodd;stroke-linejoin:round;stroke-miterlimit:2;"><path d="M325.417,246.292l-0.417,0l-0.417,-246.292l-324.583,0l0,416.667l53.75,0l-0.417,-246.292l0,-59.833l50.417,-0.125l85.417,134.375l0,-134.25l37.917,-0.042l98.333,154.875l0,-19.083Z" style="fill:#fff;"/><path d="M416.667,0l-54.167,0l0.417,40.333l0.417,275.625l-50.833,0l-85.417,-134.375l0.417,123.25l0,11.125l-37.917,0l0,-0.125l-98.333,-154.458l0.417,224.792l0,30.5l325,0l0,-416.667Z" style="fill:#fff;"/></svg>