<svg xmlns="http://www.w3.org/2000/svg" xmlns:xlink="http://www.w3.org/1999/xlink" width="940" zoomAndPan="magnify" viewBox="0 0 705 591.000005" height="788" preserveAspectRatio="xMidYMid meet" version="1.0"><defs><clipPath id="80a4e2156f"><path d="M 59.59375 0 L 649.597656 0 L 649.597656 590 L 59.59375 590 Z M 59.59375 0 " clip-rule="nonzero"/></clipPath></defs><g clip-path="url(#80a4e2156f)"><path fill="#000000" d="M 649.597656 282.847656 L 417.84375 282.847656 L 632.960938 196.707031 L 623.992188 174.050781 L 405.21875 261.605469 L 571.835938 94.992188 L 554.605469 77.761719 L 390.703125 241.664062 L 481.917969 28.675781 L 459.617188 19 L 366.75 235.527344 L 366.75 0 L 342.441406 0 L 342.441406 231.753906 L 256.300781 16.636719 L 233.644531 25.605469 L 321.203125 244.378906 L 154.585938 77.761719 L 137.359375 94.992188 L 301.261719 258.894531 L 88.269531 167.679688 L 78.59375 189.980469 L 295.125 282.847656 L 59.59375 282.847656 L 59.59375 307.15625 L 291.347656 307.15625 L 76.234375 393.296875 L 85.203125 415.949219 L 303.972656 328.394531 L 137.359375 495.011719 L 154.585938 512.238281 L 318.488281 348.335938 L 227.273438 561.328125 L 249.574219 571.003906 L 342.441406 354.472656 L 342.441406 590 L 366.75 590 L 366.75 358.25 L 452.890625 573.363281 L 475.546875 564.394531 L 387.992188 345.621094 L 554.605469 512.238281 L 571.835938 495.011719 L 407.933594 331.109375 L 620.921875 422.324219 L 630.597656 400.019531 L 414.070312 307.15625 L 649.597656 307.15625 Z M 649.597656 282.847656 " fill-opacity="1" fill-rule="nonzero"/></g></svg>