<svg xmlns="http://www.w3.org/2000/svg" xmlns:xlink="http://www.w3.org/1999/xlink" width="940" zoomAndPan="magnify" viewBox="0 0 705 591.000005" height="788" preserveAspectRatio="xMidYMid meet" version="1.0"><defs><clipPath id="c4e5935cef"><path d="M 59.59375 0 L 649.597656 0 L 649.597656 590 L 59.59375 590 Z M 59.59375 0 " clip-rule="nonzero"/></clipPath></defs><g clip-path="url(#c4e5935cef)"><path fill="#000000" d="M 367.878906 590 L 341.199219 590 L 341.199219 359.878906 L 250.582031 571.433594 L 226.136719 560.972656 L 315.105469 353.414062 L 155.382812 513.019531 L 136.578125 494.214844 L 299.238281 331.433594 L 85.6875 416.996094 L 75.816406 392.316406 L 76.871094 391.847656 L 285.488281 308.398438 L 59.59375 308.398438 L 59.59375 281.71875 L 289.71875 281.71875 L 78.164062 191.105469 L 88.625 166.65625 L 89.683594 167.128906 L 296.183594 255.628906 L 136.578125 95.789062 L 155.382812 76.980469 L 318.160156 239.644531 L 232.601562 26.089844 L 257.28125 16.21875 L 257.75 17.277344 L 341.199219 225.894531 L 341.199219 0 L 367.878906 0 L 367.878906 230.125 L 458.492188 18.570312 L 482.9375 29.03125 L 393.96875 236.589844 L 553.808594 76.980469 L 572.613281 95.789062 L 409.953125 258.566406 L 623.625 173.121094 L 633.496094 197.804688 L 632.4375 198.273438 L 423.820312 281.71875 L 649.597656 281.71875 L 649.597656 308.398438 L 419.472656 308.398438 L 631.027344 399.015625 L 620.566406 423.460938 L 412.890625 334.492188 L 572.613281 494.214844 L 553.808594 513.019531 L 391.03125 350.359375 L 476.476562 564.027344 L 451.792969 573.898438 L 451.324219 572.84375 L 367.878906 364.226562 Z M 343.667969 587.652344 L 365.644531 587.652344 L 365.644531 351.886719 L 453.203125 570.726562 L 473.535156 562.617188 L 384.683594 340.484375 L 553.808594 509.609375 L 569.324219 494.097656 L 402.667969 327.558594 L 619.390625 420.40625 L 628.089844 400.191406 L 408.191406 306.046875 L 647.246094 306.046875 L 647.246094 284.070312 L 411.480469 284.070312 L 630.324219 196.511719 L 622.210938 176.179688 L 400.082031 265.03125 L 569.324219 95.789062 L 553.808594 80.273438 L 387.152344 246.929688 L 480 30.207031 L 459.785156 21.507812 L 365.644531 241.40625 L 365.644531 2.351562 L 343.667969 2.351562 L 343.667969 238.117188 L 256.105469 19.273438 L 235.773438 27.382812 L 324.625 249.515625 L 155.382812 80.273438 L 139.867188 95.789062 L 306.527344 262.445312 L 89.800781 169.597656 L 81.222656 189.8125 L 301.121094 283.953125 L 61.945312 283.953125 L 61.945312 305.929688 L 297.710938 305.929688 L 78.871094 393.492188 L 86.980469 413.824219 L 309.113281 324.972656 L 139.867188 494.214844 L 155.382812 509.730469 L 322.039062 343.070312 L 229.191406 559.796875 L 249.40625 568.375 L 343.546875 348.476562 L 343.546875 587.652344 Z M 343.667969 587.652344 " fill-opacity="1" fill-rule="nonzero"/></g></svg>